<svg xmlns="http://www.w3.org/2000/svg" width="19.111" height="20" viewBox="0 0 19.111 20">
  <g id="Group_266" data-name="Group 266" transform="translate(-627.444 -9276)">
    <path id="GO_BACK_ARROW" data-name="GO BACK ARROW" d="M3.353,10,10.7,17.561a1.458,1.458,0,0,1,0,2.02,1.362,1.362,0,0,1-1.964,0L.407,11.01a1.458,1.458,0,0,1,0-2.02L8.74.418a1.362,1.362,0,0,1,1.964,0,1.458,1.458,0,0,1,0,2.02Z" transform="translate(646.555 9296) rotate(180)" fill="#ed1651"/>
    <path id="GO_BACK_ARROW-2" data-name="GO BACK ARROW" d="M3.353,10,10.7,17.561a1.458,1.458,0,0,1,0,2.02,1.362,1.362,0,0,1-1.964,0L.407,11.01a1.458,1.458,0,0,1,0-2.02L8.74.418a1.362,1.362,0,0,1,1.964,0,1.458,1.458,0,0,1,0,2.02Z" transform="translate(638.555 9296) rotate(180)" fill="#ed1651"/>
  </g>
</svg>
