<svg id="phone-call-icon" xmlns="http://www.w3.org/2000/svg" width="26.904" height="28.808" viewBox="0 0 26.904 28.808">
  <path id="Path_11" data-name="Path 11" d="M8.214,11.86q.258.652.544,1.29t.608,1.258q.323.62.688,1.219t.783,1.174q.419.578.9,1.131t1.028,1.078q.549.524,1.173,1.019t1.331.954a.515.515,0,0,0,.1.05.428.428,0,0,0,.1.022.418.418,0,0,0,.1,0,.472.472,0,0,0,.1-.028.971.971,0,0,0,.149-.073,1.583,1.583,0,0,0,.152-.1c.051-.039.1-.082.154-.129s.1-.1.155-.148.083-.087.129-.139.093-.108.142-.169.1-.125.152-.192.105-.137.159-.208c.215-.279.443-.574.683-.849a4.883,4.883,0,0,1,.76-.723,1.861,1.861,0,0,1,.836-.371,1.367,1.367,0,0,1,.911.207l.02.013.018.013.018.013.02.012,4.156,3.066.01.008.01.009.01.009.009.008a1.82,1.82,0,0,1,.338.4,2,2,0,0,1,.214.474,2.565,2.565,0,0,1,.1.534,3.5,3.5,0,0,1,0,.58,4.485,4.485,0,0,1-.1.622,5.831,5.831,0,0,1-.187.634c-.075.211-.162.42-.258.624s-.2.4-.314.592a5.33,5.33,0,0,1-.483.687,5.006,5.006,0,0,1-.551.566,5.085,5.085,0,0,1-.609.457,5.533,5.533,0,0,1-.655.359,6.809,6.809,0,0,1-.656.268c-.222.078-.447.145-.673.2s-.454.108-.68.15-.453.078-.676.108a7.887,7.887,0,0,1-1.032.072,7.462,7.462,0,0,1-1-.064,7.783,7.783,0,0,1-.979-.194,8.913,8.913,0,0,1-.97-.319q-.474-.187-.947-.43t-.954-.538q-.481-.3-.971-.643t-1-.744l-.1-.081-.475-.375q-.241-.192-.488-.394t-.494-.417q-.247-.215-.493-.446a25.01,25.01,0,0,1-1.775-1.895c-.581-.687-1.147-1.426-1.683-2.205A27.522,27.522,0,0,1,4.273,17.41a24.7,24.7,0,0,1-1.24-2.634,20.77,20.77,0,0,1-.768-2.3A17.494,17.494,0,0,1,1.8,10.126a14.641,14.641,0,0,1-.11-2.351,12.558,12.558,0,0,1,.3-2.315,9.813,9.813,0,0,1,.357-1.214,8.1,8.1,0,0,1,.506-1.115,6.558,6.558,0,0,1,.658-.981,5.421,5.421,0,0,1,.815-.811A4.9,4.9,0,0,1,5.159.8,4.7,4.7,0,0,1,6.11.432,5.05,5.05,0,0,1,7.179.274a6.087,6.087,0,0,1,1.187.07A.5.5,0,0,1,8.5.382a.522.522,0,0,1,.12.075.564.564,0,0,1,.1.107A.611.611,0,0,1,8.792.7l2.421,5.7a2.267,2.267,0,0,1,.209.477,1.816,1.816,0,0,1,.035.932,2.216,2.216,0,0,1-.158.457,2.568,2.568,0,0,1-.21.363,3.252,3.252,0,0,1-.277.346,4.259,4.259,0,0,1-.339.33q-.184.161-.4.315-.063.054-.131.108l-.141.109-.148.11-.154.112c-.173.126-.351.257-.519.394a3.639,3.639,0,0,0-.455.43,1.49,1.49,0,0,0-.289.473.88.88,0,0,0-.023.523l0-.019Z" fill="#d71846"/>
</svg>
