<svg id="Group_170" data-name="Group 170" xmlns="http://www.w3.org/2000/svg" width="164.868" height="31.471" viewBox="0 0 164.868 31.471">
  <path id="Apple_logo_black" d="M24.8,10.729a7.128,7.128,0,0,0-3.405,6,6.939,6.939,0,0,0,4.224,6.364,16.505,16.505,0,0,1-2.162,4.466c-1.347,1.939-2.754,3.874-4.894,3.874s-2.691-1.243-5.162-1.243c-2.408,0-3.264,1.284-5.222,1.284s-3.324-1.794-4.894-4A19.278,19.278,0,0,1,0,17.053c0-6.119,3.978-9.364,7.894-9.364,2.08,0,3.815,1.366,5.121,1.366,1.243,0,3.182-1.448,5.549-1.448A7.42,7.42,0,0,1,24.8,10.729ZM17.44,5.017A7.027,7.027,0,0,0,19.111.633,3.022,3.022,0,0,0,19.051,0a7.04,7.04,0,0,0-4.63,2.386A6.842,6.842,0,0,0,12.687,6.65a2.89,2.89,0,0,0,.06.57,2.463,2.463,0,0,0,.428.041A6.1,6.1,0,0,0,17.44,5.017Z" fill="#fff"/>
  <g id="layer1" transform="translate(33.539 8.587)">
    <g id="text817" transform="translate(0 0)">
      <path id="path819" d="M118.446,152.628V130.073h-4.658l-6.909,17.022h-.125l-6.909-17.022H95.172v22.555h3.642V136.622h.109l6.518,15.818h2.751l6.518-15.818h.109v16.006Z" transform="translate(-95.172 -130.073)" fill="#fff"/>
      <path id="path821" d="M153.931,155.68c-1.688,0-2.814-.86-2.814-2.22,0-1.313,1.079-2.157,2.954-2.282l3.83-.234v1.266A3.684,3.684,0,0,1,153.931,155.68Zm-1.172,2.939a5.857,5.857,0,0,0,5.158-2.907H158v2.642h3.751v-11.41c0-3.329-2.673-5.5-6.784-5.5-4.22,0-6.862,2.22-7.034,5.314h3.611c.25-1.375,1.422-2.266,3.267-2.266,1.923,0,3.095,1,3.095,2.735v1.188l-4.377.25c-4.033.25-6.3,2.016-6.3,4.955,0,2.985,2.329,5,5.533,5Z" transform="translate(-121.388 -135.798)" fill="#fff"/>
      <path id="path823" d="M196.712,147.693c-.266-3.486-2.97-6.252-7.346-6.252-4.814,0-7.94,3.329-7.94,8.628,0,5.377,3.126,8.613,7.972,8.613,4.158,0,7.018-2.438,7.331-6.143h-3.673a3.436,3.436,0,0,1-3.611,3c-2.47,0-4.064-2-4.064-5.471,0-3.408,1.579-5.471,4.033-5.471a3.507,3.507,0,0,1,3.626,3.095Z" transform="translate(-138.612 -135.798)" fill="#fff"/>
      <path id="path825" d="M227.19,152.628c4.814,0,7.737-2.438,7.737-6.409a5.444,5.444,0,0,0-5.205-5.486v-.125a5,5,0,0,0,4.111-4.908c0-3.423-2.642-5.627-6.737-5.627h-9.362v22.555Zm-5.424-19.413h4.314c2.407,0,3.767,1.11,3.767,3.079,0,2.095-1.579,3.282-4.392,3.282h-3.689Zm0,16.272v-7.049h4.33c3.095,0,4.72,1.2,4.72,3.5,0,2.313-1.579,3.548-4.549,3.548Z" transform="translate(-156.899 -130.073)" fill="#fff"/>
      <path id="path827" d="M264.013,158.682c4.861,0,8.019-3.236,8.019-8.613,0-5.361-3.189-8.628-8.019-8.628s-8.019,3.282-8.019,8.628C255.994,155.446,259.152,158.682,264.013,158.682Zm0-3.079c-2.47,0-4.064-2-4.064-5.533,0-3.517,1.61-5.533,4.064-5.533,2.47,0,4.064,2.016,4.064,5.533C268.077,153.6,266.482,155.6,264.013,155.6Z" transform="translate(-176.168 -135.798)" fill="#fff"/>
      <path id="path829" d="M300.038,158.682c4.861,0,8.019-3.236,8.019-8.613,0-5.361-3.189-8.628-8.019-8.628s-8.019,3.282-8.019,8.628C292.02,155.446,295.177,158.682,300.038,158.682Zm0-3.079c-2.47,0-4.064-2-4.064-5.533,0-3.517,1.61-5.533,4.064-5.533,2.47,0,4.064,2.016,4.064,5.533C304.1,153.6,302.508,155.6,300.038,155.6Z" transform="translate(-194.312 -135.798)" fill="#fff"/>
      <path id="path831" d="M333.589,142.969h-.047v-12.9H329.65v22.555h3.892v-5.752l1.313-1.329,5.236,7.081h4.5l-6.909-9.441,6.627-7.128h-4.486Z" transform="translate(-213.264 -130.073)" fill="#fff"/>
    </g>
  </g>
</svg>
