<svg xmlns="http://www.w3.org/2000/svg" width="153.825" height="23.539" viewBox="0 0 153.825 23.539">
  <g id="g907" transform="translate(-2.17)">
    <path id="polygon16" d="M941.16,155.043v21.75h-7.824l-5.43-17.85h-.117l.3,17.85h-5.407v-21.75h8.162L935.9,172.3h.121l-.3-17.257Z" transform="translate(-806.53 -154.345)" fill="#fff"/>
    <path id="polygon18" d="M328.746,177.022l-2.929-19.942h-.124l-3.01,19.942h-5.934l4.075-21.979H330.6l4.057,21.979Z" transform="translate(-295.118 -154.345)" fill="#fff"/>
    <path id="polygon20" d="M469.1,155.043l2.714,16.8h.117l2.716-16.8h8.963l.476,21.979H478.6l-.145-19.76h-.114l-3.674,19.76h-5.577l-3.676-19.76h-.119l-.138,19.76h-5.5l.486-21.979Z" transform="translate(-415.727 -154.345)" fill="#fff"/>
    <path id="path22" d="M-342.071,251.554a2.9,2.9,0,0,1,.049,1.63,1.906,1.906,0,0,1-2.142,1.476,1.967,1.967,0,0,1-2.214-2v-2.128h-5.895l0,1.7c0,4.9,3.858,6.378,7.992,6.378,3.975,0,7.249-1.359,7.77-5.021a10.9,10.9,0,0,0-.023-3.611c-.927-4.6-9.269-5.974-9.891-8.548a2.916,2.916,0,0,1-.023-1.158,1.812,1.812,0,0,1,2.009-1.474A1.876,1.876,0,0,1-342.4,240.8v1.357h5.481v-1.544c0-4.788-4.3-5.535-7.41-5.535-3.91,0-7.1,1.292-7.688,4.869a7.648,7.648,0,0,0,.049,2.971c.96,4.491,8.767,5.792,9.9,8.637Z" transform="translate(354.446 -235.077)" fill="#fff"/>
    <path id="path24" d="M116.614,252.171a2.814,2.814,0,0,1,.049,1.607,1.881,1.881,0,0,1-2.123,1.462,1.949,1.949,0,0,1-2.188-1.969l0-2.109h-5.834l-.007,1.679c0,4.851,3.823,6.315,7.915,6.315,3.933,0,7.177-1.341,7.688-4.97a10.56,10.56,0,0,0-.019-3.571c-.923-4.559-9.181-5.918-9.795-8.466a2.761,2.761,0,0,1-.021-1.137,1.791,1.791,0,0,1,1.99-1.46,1.844,1.844,0,0,1,2.015,1.966v1.343h5.439v-1.527c0-4.736-4.262-5.479-7.345-5.479-3.865,0-7.034,1.275-7.607,4.827a7.564,7.564,0,0,0,.051,2.936c.946,4.444,8.676,5.736,9.795,8.552Z" transform="translate(-32.768 -235.734)" fill="#fff"/>
    <path id="path26" d="M247.852,258.193a1.978,1.978,0,0,0,2.107-1.6,4.566,4.566,0,0,0,.051-.841V239.493h5.558V255.26c.012.4-.028,1.235-.047,1.443-.39,4.1-3.634,5.435-7.672,5.435s-7.289-1.331-7.674-5.435c-.019-.208-.058-1.039-.047-1.443V239.493h5.554v16.264a5.26,5.26,0,0,0,.051.841,1.994,1.994,0,0,0,2.118,1.6Z" transform="translate(-145.545 -238.804)" fill="#fff"/>
    <path id="path28" d="M541.428,254.753a2.063,2.063,0,0,0,2.251-1.593,5.39,5.39,0,0,0,.049-.836v-3.19h-2.256v-3.209h7.793v5.9c0,.411-.014.715-.079,1.448-.367,4-3.835,5.425-7.73,5.425s-7.366-1.427-7.737-5.425c-.063-.733-.072-1.037-.079-1.448l0-9.255c0-.39.049-1.081.091-1.448.488-4.108,3.818-5.43,7.721-5.43s7.31,1.315,7.714,5.43a12.493,12.493,0,0,1,.049,1.448v.733h-5.542v-1.231a5.061,5.061,0,0,0-.072-.836,2,2,0,0,0-2.191-1.6,2.025,2.025,0,0,0-2.188,1.6,4.94,4.94,0,0,0-.093,1.037v10.052a4.632,4.632,0,0,0,.056.836A2.043,2.043,0,0,0,541.428,254.753Z" transform="translate(-393.271 -235.595)" fill="#fff"/>
  </g>
</svg>
