<svg xmlns="http://www.w3.org/2000/svg" xmlns:xlink="http://www.w3.org/1999/xlink" width="496.214" height="365.403" viewBox="0 0 496.214 365.403">
  <defs>
    <linearGradient id="linear-gradient" x1="0.253" y1="0.381" x2="0.879" y2="0.901" gradientUnits="objectBoundingBox">
      <stop offset="0" stop-color="#4d0617"/>
      <stop offset="1" stop-color="#fd174d"/>
    </linearGradient>
  </defs>
  <path id="Path_3981" data-name="Path 3981" d="M-44.842,67.766a35.508,35.508,0,0,0-42.2,27.3,35.525,35.525,0,0,0,27.3,42.2,35.616,35.616,0,0,0,7.451.788V250.4a31.152,31.152,0,0,0-19.847,2.185,31.454,31.454,0,0,0-17.769,23.536H-203.614a23.052,23.052,0,0,0-7.738-9.028,22.916,22.916,0,0,0-31.812,6.09,22.916,22.916,0,0,0,6.09,31.812,22.916,22.916,0,0,0,31.812-6.09,22.44,22.44,0,0,0,3.941-12.861H-89.873a31.878,31.878,0,0,0,2.508,8.275A31.392,31.392,0,0,0-45.63,309.542a31.392,31.392,0,0,0,15.225-41.735A31.224,31.224,0,0,0-42.37,254.373V136.656a35.539,35.539,0,0,0,24.826-26.689A35.543,35.543,0,0,0-44.842,67.766Z" transform="translate(465.594 52.91)" fill="url(#linear-gradient)"/>
  <path id="Union_5" data-name="Union 5" d="M-4152-7438.319a13.592,13.592,0,0,1,13.576-13.576,13.592,13.592,0,0,1,13.578,13.576,13.592,13.592,0,0,1-13.578,13.578A13.592,13.592,0,0,1-4152-7438.319Zm475.563,8.206a12.443,12.443,0,0,1-1-17.519,12.443,12.443,0,0,1,17.519-1,12.443,12.443,0,0,1,1,17.519,12.4,12.4,0,0,1-9.269,4.136A12.386,12.386,0,0,1-3676.436-7430.114ZM-3903.2-7664.225a12.386,12.386,0,0,1-11.642-13.111,12.389,12.389,0,0,1,13.111-11.642,12.416,12.416,0,0,1,11.644,13.111,12.388,12.388,0,0,1-12.381,11.664Q-3902.835-7664.2-3903.2-7664.225Z" transform="translate(4152 7688.999)" fill="#fd174d"/>
</svg>
