<svg xmlns="http://www.w3.org/2000/svg" xmlns:xlink="http://www.w3.org/1999/xlink" width="496.214" height="377.151" viewBox="0 0 496.214 377.151">
  <defs>
    <linearGradient id="linear-gradient" x2="0.702" y2="0.71" gradientUnits="objectBoundingBox">
      <stop offset="0" stop-color="#4d0617"/>
      <stop offset="1" stop-color="#fd174d"/>
    </linearGradient>
    <linearGradient id="linear-gradient-2" x1="0.253" y1="0.381" x2="0.879" y2="0.901" xlink:href="#linear-gradient"/>
  </defs>
  <path id="Path_3994" data-name="Path 3994" d="M-252.149,245.469a35.616,35.616,0,0,0-7.451-.788V133.054A31.433,31.433,0,0,0-233.592,119.3a31.309,31.309,0,0,0,5.015-12.682h115.891a22.67,22.67,0,0,0,9.028,12.216,22.916,22.916,0,0,0,31.812-6.09,22.916,22.916,0,0,0-6.09-31.812,22.916,22.916,0,0,0-31.812,6.09,23.153,23.153,0,0,0-3.726,9.672H-228.613a31.306,31.306,0,0,0-13.327-21.029,31.4,31.4,0,0,0-43.634,8.347,31.4,31.4,0,0,0,8.347,43.634,31.656,31.656,0,0,0,7.738,3.8V246.078a35.539,35.539,0,0,0-24.826,26.689A35.562,35.562,0,0,0-267.016,315a35.562,35.562,0,0,0,42.237-27.3A35.646,35.646,0,0,0-252.149,245.469Z" transform="translate(341.637 61.348)" fill="url(#linear-gradient)"/>
  <path id="Path_3988" data-name="Path 3988" d="M-44.842,67.766a35.508,35.508,0,0,0-42.2,27.3,35.525,35.525,0,0,0,27.3,42.2,35.616,35.616,0,0,0,7.451.788V250.4a31.152,31.152,0,0,0-19.847,2.185,31.454,31.454,0,0,0-17.769,23.536H-203.614a23.052,23.052,0,0,0-7.738-9.028,22.916,22.916,0,0,0-31.812,6.09,22.916,22.916,0,0,0,6.09,31.812,22.916,22.916,0,0,0,31.812-6.09,22.44,22.44,0,0,0,3.941-12.861H-89.873a31.878,31.878,0,0,0,2.508,8.275A31.392,31.392,0,0,0-45.63,309.542a31.392,31.392,0,0,0,15.225-41.735A31.224,31.224,0,0,0-42.37,254.373V136.656a35.539,35.539,0,0,0,24.826-26.689A35.543,35.543,0,0,0-44.842,67.766Z" transform="translate(465.594 52.91)" fill="url(#linear-gradient-2)"/>
  <path id="Union_6" data-name="Union 6" d="M-4152-7438.319a13.592,13.592,0,0,1,13.576-13.576,13.592,13.592,0,0,1,13.578,13.576,13.592,13.592,0,0,1-13.578,13.578A13.592,13.592,0,0,1-4152-7438.319Zm475.563,8.206a12.443,12.443,0,0,1-1-17.519,12.443,12.443,0,0,1,17.519-1,12.443,12.443,0,0,1,1,17.519,12.4,12.4,0,0,1-9.269,4.136A12.386,12.386,0,0,1-3676.436-7430.114ZM-3903.2-7664.225a12.386,12.386,0,0,1-11.642-13.111,12.389,12.389,0,0,1,13.111-11.642,12.416,12.416,0,0,1,11.644,13.111,12.388,12.388,0,0,1-12.381,11.664Q-3902.835-7664.2-3903.2-7664.225Z" transform="translate(4152 7688.999)" fill="#fd174d"/>
</svg>
