<svg xmlns="http://www.w3.org/2000/svg" width="496.214" height="264.258" viewBox="0 0 496.214 264.258">
  <path id="Union_2" data-name="Union 2" d="M-4152-7438.319a13.592,13.592,0,0,1,13.576-13.576,13.592,13.592,0,0,1,13.578,13.576,13.592,13.592,0,0,1-13.578,13.578A13.592,13.592,0,0,1-4152-7438.319Zm475.563,8.206a12.443,12.443,0,0,1-1-17.519,12.443,12.443,0,0,1,17.519-1,12.443,12.443,0,0,1,1,17.519,12.4,12.4,0,0,1-9.269,4.136A12.386,12.386,0,0,1-3676.436-7430.114ZM-3903.2-7664.225a12.386,12.386,0,0,1-11.642-13.111,12.389,12.389,0,0,1,13.111-11.642,12.416,12.416,0,0,1,11.644,13.111,12.388,12.388,0,0,1-12.381,11.664Q-3902.835-7664.2-3903.2-7664.225Z" transform="translate(4152 7688.999)" fill="#fd174d"/>
</svg>
