<svg xmlns="http://www.w3.org/2000/svg" width="223.345" height="456" viewBox="0 0 223.345 456">
  <path id="Path_3801" data-name="Path 3801" d="M554.03,177.153H508.6v-7.1a18.365,18.365,0,0,0-18.363-18.363H454.787a18.365,18.365,0,0,0-18.363,18.363v7.1H390.992a30.19,30.19,0,0,0-30.162,30.162V577.529a30.19,30.19,0,0,0,30.162,30.162H554.013a30.19,30.19,0,0,0,30.162-30.162V207.315A30.175,30.175,0,0,0,554.03,177.153Zm13.992,400.376a14,14,0,0,1-13.992,13.992H391.009a14,14,0,0,1-13.993-13.992V207.315a14,14,0,0,1,13.993-13.993H554.03a14,14,0,0,1,13.992,13.993Z" transform="translate(-360.83 -151.69)" fill="#48caf3"/>
</svg>
