<svg xmlns="http://www.w3.org/2000/svg" xmlns:xlink="http://www.w3.org/1999/xlink" width="566.356" height="474.77" viewBox="0 0 566.356 474.77">
  <defs>
    <linearGradient id="linear-gradient" x1="0.332" x2="0.745" y2="0.969" gradientUnits="objectBoundingBox">
      <stop offset="0" stop-color="#20d9ff"/>
      <stop offset="1" stop-color="#003161"/>
    </linearGradient>
    <linearGradient id="linear-gradient-2" x1="0.5" x2="0.5" y2="1" gradientUnits="objectBoundingBox">
      <stop offset="0" stop-color="#96378a"/>
      <stop offset="1" stop-color="#4b1b45"/>
    </linearGradient>
  </defs>
  <path id="Union_10" data-name="Union 10" d="M-4152-7507.406a180.878,180.878,0,0,1,8.462-54.751c.083-.166.083-.249.166-.415,23.478-73.252,92.167-126.429,173.052-126.429,80.966,0,149.657,53.176,173.05,126.429.083.166.166.249.166.415a178.263,178.263,0,0,1,8.3,54.751c0,100.131-81.466,181.6-181.595,181.6S-4152-7407.274-4152-7507.406Zm22.234,0c0,87.936,71.51,159.446,159.446,159.446s159.527-71.508,159.361-159.446a159.427,159.427,0,0,0-5.226-40.566h-75.325a33.178,33.178,0,0,1-32.355,25.966h-93a33.244,33.244,0,0,1-32.353-25.966h-75.327A159.525,159.525,0,0,0-4129.767-7507.406Zm101.955-55.332v7.632a11.03,11.03,0,0,0,11.034,11.034h35.423v-29.7h-35.423A11.029,11.029,0,0,0-4027.812-7562.737Zm68.606,18.583h35.423a11.029,11.029,0,0,0,11.034-11.034v-7.632a11.154,11.154,0,0,0-11.034-11.117h-35.423Zm35.423-51.849a33.248,33.248,0,0,1,32.355,25.966h67.776c-24.472-56.91-80.968-96.812-146.669-96.812a159.573,159.573,0,0,0-146.589,96.812h67.778A33.175,33.175,0,0,1-4016.778-7596Zm-57.572,22.232v-.083Zm-41.012,151.66a11.033,11.033,0,0,1,0-15.6,11.034,11.034,0,0,1,15.6,0,11.033,11.033,0,0,1,0,15.6,11,11,0,0,1-7.8,3.232A11,11,0,0,1-4022.366-7422.112Zm41.012-7.81a11.034,11.034,0,0,1,11.034-11.034,11.033,11.033,0,0,1,11.032,11.034,11.033,11.033,0,0,1-11.032,11.034A11.034,11.034,0,0,1-3981.354-7429.921Zm44.587,2.5a11.036,11.036,0,0,1,8.2-13.274,11.033,11.033,0,0,1,13.274,8.2,11.034,11.034,0,0,1-8.2,13.272,11.054,11.054,0,0,1-2.546.3A11.039,11.039,0,0,1-3936.767-7427.424Zm21.779-46.714a11.034,11.034,0,0,1,11.034-11.034,11.034,11.034,0,0,1,11.034,11.034,11.034,11.034,0,0,1-11.034,11.034A11.034,11.034,0,0,1-3914.989-7474.138Zm-132.733,0a11.034,11.034,0,0,1,11.034-11.034,11.034,11.034,0,0,1,11.034,11.034,11.034,11.034,0,0,1-11.034,11.034A11.034,11.034,0,0,1-4047.722-7474.138Zm91.741,7.8a11.033,11.033,0,0,1,0-15.6,11.036,11.036,0,0,1,15.6,0,11.032,11.032,0,0,1,0,15.6,11,11,0,0,1-7.8,3.232A11,11,0,0,1-3955.981-7466.336Zm-47.144-5.3a11.034,11.034,0,0,1,8.2-13.274,11.036,11.036,0,0,1,13.274,8.2,11.032,11.032,0,0,1-8.2,13.272,11.081,11.081,0,0,1-2.546.3A11.035,11.035,0,0,1-4003.125-7471.637Z" transform="translate(4253.458 7750.804)" fill="url(#linear-gradient)"/>
  <g id="Group_289" data-name="Group 289">
    <path id="Path_3814" data-name="Path 3814" d="M555.239,197.722H491.444a228.534,228.534,0,0,0-19.329-32.686l49.194-49.194a11.087,11.087,0,1,0-15.679-15.679l-47.286,47.286c-3.733-4.314-7.549-8.462-11.614-12.527a237.437,237.437,0,0,0-22.9-20.076V66.233a11.033,11.033,0,1,0-22.067,0v33.6a231.828,231.828,0,0,0-237.095,0v-33.6a11.033,11.033,0,0,0-22.067,0v48.614a237.439,237.439,0,0,0-22.9,20.076c-4.065,4.065-7.964,8.213-11.614,12.527L60.808,100.163a11.087,11.087,0,0,0-15.679,15.679l49.194,49.194a224.058,224.058,0,0,0-19.329,32.686H11.033a11.033,11.033,0,1,0,0,22.067h54.5A231.444,231.444,0,0,0,453.947,454.81a11.038,11.038,0,1,0-16.26-14.932A209.806,209.806,0,0,1,283.3,507.9c-115.395,0-209.221-93.826-209.221-209.221S167.907,89.462,283.3,89.462s209.221,93.826,209.221,209.221a207.075,207.075,0,0,1-11.448,68.358,11.072,11.072,0,1,0,20.905,7.3A233.5,233.5,0,0,0,500.9,219.872h54.421a11.028,11.028,0,0,0,11.033-11.033A11.17,11.17,0,0,0,555.239,197.722Z" transform="translate(0 -55.2)" fill="url(#linear-gradient-2)"/>
    <circle id="Ellipse_41" data-name="Ellipse 41" cx="11.033" cy="11.033" r="11.033" transform="translate(459.217 347.93) rotate(-9.218)" fill="url(#linear-gradient-2)"/>
  </g>
</svg>
