<svg id="Apple_ipad" xmlns="http://www.w3.org/2000/svg" width="120.719" height="43.709" viewBox="0 0 120.719 43.709">
  <path id="Path_3780" data-name="Path 3780" d="M190.15,67a2.406,2.406,0,0,1,.042-4.808A2.406,2.406,0,0,1,190.15,67Zm1.784,27.273h-3.526V71.089h3.526Z" transform="translate(-143.267 -52.751)" fill="#fff"/>
  <path id="Path_3781" data-name="Path 3781" d="M228.048,60.852a40.937,40.937,0,0,1,7.35-.638c10.451,0,11.3,6.722,11.3,9.275,0,7.616-6.075,10.339-11.81,10.339a13.334,13.334,0,0,1-3.314-.3V92.848h-3.526Zm3.526,15.743a12.875,12.875,0,0,0,3.4.34c5.1,0,8.2-2.553,8.2-7.191s-3.314-6.68-7.732-6.68a18.713,18.713,0,0,0-3.866.34v13.19Z" transform="translate(-172.244 -51.322)" fill="#fff"/>
  <path id="Path_3782" data-name="Path 3782" d="M324.931,110.294a32.492,32.492,0,0,0,.34,5.531h-3.229l-.34-2.978h-.128a8.046,8.046,0,0,1-6.84,3.489,6.424,6.424,0,0,1-6.755-6.595c0-5.574,4.843-8.595,13.425-8.552,0-1.957,0-6.382-5.268-6.382a10.006,10.006,0,0,0-5.65,1.659l-.85-2.425a13.159,13.159,0,0,1,7.052-1.957c6.543,0,8.242,4.638,8.242,9.233v8.978Zm-3.483-6.51c-4.376,0-9.856.638-9.856,5.531,0,2.978,1.869,4.3,3.994,4.3a5.665,5.665,0,0,0,5.863-5.446v-4.382Z" transform="translate(-229.872 -74.298)" fill="#fff"/>
  <path id="Path_3783" data-name="Path 3783" d="M407.5,83.477c0,1.872.085,4.17.17,5.744h-3.144l-.17-3.957h-.128a8.189,8.189,0,0,1-7.562,4.468c-5.353,0-9.516-4.638-9.516-11.786,0-7.829,4.588-12.424,9.984-12.424A7.433,7.433,0,0,1,403.89,69.1h.085V55.183H407.5Zm-3.526-8.169c0-4.638-3.271-6.935-6.245-6.935-4.376,0-6.967,4.084-6.967,9.4,0,4.893,2.294,9.063,6.84,9.063,3.823,0,6.373-3.361,6.373-7.063Z" transform="translate(-286.952 -47.695)" fill="#fff"/>
  <g id="Group_159" data-name="Group 159">
    <path id="Path_3784" data-name="Path 3784" d="M57.776,78.733a9.881,9.881,0,0,1,4.711-8.324,10.223,10.223,0,0,0-8-4.323c-3.4-.34-6.638,2.013-8.364,2.015s-4.393-1.946-7.214-1.889A10.7,10.7,0,0,0,29.876,71.7c-3.843,6.694-.962,16.6,2.8,22.016,1.839,2.649,4.031,5.632,6.906,5.52,2.768-.112,3.812-1.794,7.156-1.8s4.289,1.783,7.216,1.724c2.979-.056,4.862-2.711,6.681-5.375a24.1,24.1,0,0,0,3.019-6.22,9.657,9.657,0,0,1-5.877-8.834" transform="translate(-28.057 -55.531)" fill="#fff"/>
    <path id="Path_3785" data-name="Path 3785" d="M97.977,35.324a9.618,9.618,0,0,0,2.273-6.978,9.8,9.8,0,0,0-6.437,3.311,9.146,9.146,0,0,0-2.317,6.76,8.112,8.112,0,0,0,6.482-3.093" transform="translate(-73.754 -28.346)" fill="#fff"/>
  </g>
</svg>
