<svg id="roborock-logo-horizontal-1681447408744" xmlns="http://www.w3.org/2000/svg" width="184.993" height="37.352" viewBox="0 0 184.993 37.352">
  <circle id="Ellipse_5" data-name="Ellipse 5" cx="14.368" cy="14.368" r="14.368" transform="translate(4.309 4.121)" fill="#212121"/>
  <g id="_图层_1" data-name=" 图层 1" transform="translate(0 0)">
    <g id="Group_116" data-name="Group 116">
      <g id="Group_115" data-name="Group 115" transform="translate(45.798 7.444)">
        <path id="Path_3691" data-name="Path 3691" d="M282.919,22.419V19.97h-8.028a7.074,7.074,0,0,0-7.312,6.806v.784a7.07,7.07,0,0,0,7.312,6.806l8.028.017V31.935h-7.7c-2.863,0-5.187-2.017-5.187-4.505v-.517c0-2.488,2.324-4.505,5.187-4.505l7.7.017h0Z" transform="translate(-161.359 -16.067)" fill="#fff"/>
        <path id="Path_3692" data-name="Path 3692" d="M87.922,20a7.074,7.074,0,0,0-7.312,6.806v7.6h2.449V26.942c0-2.488,2.324-4.505,5.187-4.505H95.2V20H87.922Z" transform="translate(-80.61 -16.08)" fill="#fff"/>
        <path id="Path_3693" data-name="Path 3693" d="M214.3,20a7.074,7.074,0,0,0-7.312,6.806v7.6h2.449V26.942c0-2.488,2.324-4.505,5.187-4.505h6.959V20H214.3Z" transform="translate(-135.191 -16.08)" fill="#fff"/>
        <path id="Path_3694" data-name="Path 3694" d="M302.33,29.187l9.1-8.937H314.9l-6.573,6.579,7.238,7.59H312.2l-5.63-5.852L302.33,32.59Z" transform="translate(-176.367 -16.188)" fill="#fff"/>
        <rect id="Rectangle_152" data-name="Rectangle 152" width="2.449" height="18.316" transform="translate(123.833)" fill="#fff"/>
        <path id="Path_3695" data-name="Path 3695" d="M119.086,19.935a17.384,17.384,0,0,0-5.318,0,6.952,6.952,0,0,0-5.908,6.681V27.4a6.962,6.962,0,0,0,5.908,6.681,17.384,17.384,0,0,0,5.318,0,6.952,6.952,0,0,0,5.908-6.681v-.784a6.962,6.962,0,0,0-5.908-6.681m3.46,7.334V27.4a4.773,4.773,0,0,1-4.255,4.3,10.987,10.987,0,0,1-1.863.136,10.423,10.423,0,0,1-1.863-.136,4.762,4.762,0,0,1-4.25-4.3v-.653a4.724,4.724,0,0,1,4.25-4.431,10.987,10.987,0,0,1,1.863-.136,10.423,10.423,0,0,1,1.863.136,4.735,4.735,0,0,1,4.255,4.431v.523Z" transform="translate(-92.379 -15.963)" fill="#fff"/>
        <path id="Path_3696" data-name="Path 3696" d="M184.806,19.935a17.384,17.384,0,0,0-5.318,0,6.952,6.952,0,0,0-5.908,6.681V27.4a6.962,6.962,0,0,0,5.908,6.681,17.384,17.384,0,0,0,5.318,0,6.952,6.952,0,0,0,5.908-6.681v-.784a6.962,6.962,0,0,0-5.908-6.681m3.46,7.334V27.4a4.773,4.773,0,0,1-4.255,4.3,10.987,10.987,0,0,1-1.863.136,10.423,10.423,0,0,1-1.863-.136,4.762,4.762,0,0,1-4.25-4.3v-.653a4.729,4.729,0,0,1,4.25-4.431,10.987,10.987,0,0,1,1.863-.136,10.423,10.423,0,0,1,1.863.136,4.735,4.735,0,0,1,4.255,4.431v.523h0Z" transform="translate(-120.762 -15.963)" fill="#fff"/>
        <path id="Path_3697" data-name="Path 3697" d="M245.506,19.935a17.384,17.384,0,0,0-5.318,0,6.952,6.952,0,0,0-5.908,6.681V27.4a6.962,6.962,0,0,0,5.908,6.681,17.384,17.384,0,0,0,5.318,0,6.952,6.952,0,0,0,5.908-6.681v-.784a6.962,6.962,0,0,0-5.908-6.681m3.46,7.334V27.4a4.773,4.773,0,0,1-4.255,4.3,10.987,10.987,0,0,1-1.863.136,10.422,10.422,0,0,1-1.863-.136,4.762,4.762,0,0,1-4.25-4.3v-.653a4.729,4.729,0,0,1,4.25-4.431,10.986,10.986,0,0,1,1.863-.136,10.423,10.423,0,0,1,1.863.136,4.735,4.735,0,0,1,4.255,4.431v.523Z" transform="translate(-146.977 -15.963)" fill="#fff"/>
        <path id="Path_3698" data-name="Path 3698" d="M152,17.071a16.223,16.223,0,0,0-5.136,0A7.22,7.22,0,0,0,143.6,18.6V13.1H141.15V24.536a6.882,6.882,0,0,0,5.71,6.681,16.223,16.223,0,0,0,5.136,0,6.877,6.877,0,0,0,5.71-6.681v-.784A6.882,6.882,0,0,0,152,17.071m3.346,7.334v.131a4.693,4.693,0,0,1-4.107,4.3,10.27,10.27,0,0,1-1.8.136,9.742,9.742,0,0,1-1.8-.136,4.682,4.682,0,0,1-4.1-4.3v-.648a4.663,4.663,0,0,1,4.1-4.431,10.269,10.269,0,0,1,1.8-.136,9.743,9.743,0,0,1,1.8.136,4.668,4.668,0,0,1,4.107,4.431Z" transform="translate(-106.756 -13.1)" fill="#fff"/>
      </g>
      <path id="Path_3699" data-name="Path 3699" d="M18.956,0A18.676,18.676,0,1,0,37.341,18.962,18.683,18.683,0,0,0,18.956,0ZM28.535,28.12v-.011H8.81A1.155,1.155,0,0,1,8,26.132l.352-.347L22.808,11.5H10.764a.091.091,0,0,1-.062-.159l2.113-2.1H25.592a1.155,1.155,0,0,1,.812,1.977l-.284.278L11.645,25.785H25.723l-5.505-5.5,1.642-1.642L29,25.791l.352.358a1.155,1.155,0,0,1-.818,1.971Z" transform="translate(0.004 0.004)" fill="#fff"/>
    </g>
  </g>
</svg>
