<svg xmlns="http://www.w3.org/2000/svg" width="231.873" height="38.145" viewBox="0 0 231.873 38.145">
  <g id="layer5" transform="translate(-170.549 -27.742)">
    <g id="g5711" transform="translate(170.549 27.742)">
      <path id="path4142" d="M192.659,47.5c0-.289.01-.858.01-.858-8.537-1.34-14.707-5.017-14.878-9.339a14.022,14.022,0,0,0-3.295,8.823c0,9.413,10.333,17.126,23.466,17.813-3.043-1.918-5.3-8.554-5.3-16.439Zm-22.11-.687c0-10.533,13.107-19.072,29.277-19.072S229.1,36.282,229.1,46.815s-13.108,19.073-29.277,19.073S170.549,57.347,170.549,46.815Zm36.039-4.983c6.074-.95,10.326-3.131,10.326-5.668,0-3.406-7.652-6.163-17.088-6.163s-17.088,2.758-17.088,6.163c0,2.537,4.251,4.718,10.326,5.668.985-6.6,3.641-11.337,6.762-11.337S205.6,35.23,206.587,41.831Zm-4.9,22.109c13.133-.687,23.467-8.4,23.467-17.813a14.024,14.024,0,0,0-3.3-8.823c-.171,4.323-6.339,8-14.877,9.339,0,0,.011.568.011.858,0,7.885-2.263,14.521-5.3,16.439Zm2.2-21.786c-.648-4.234-2.22-7.223-4.058-7.223s-3.409,2.989-4.058,7.223A48.443,48.443,0,0,0,203.883,42.154Zm-8.432,4.835c.107,6.131,2.024,11.022,4.375,11.022s4.267-4.89,4.376-11.022A49,49,0,0,1,195.451,46.989Z" transform="translate(-170.549 -27.742)" fill="#b9b9b9" fill-rule="evenodd"/>
      <path id="polygon4154" d="M284.4,43.178h6.229V32.741l10.715-17.05h-7.171L287.51,27.244l-6.657-11.553H273.68L284.4,32.741ZM244.241,29.263A14.578,14.578,0,1,1,258.82,43.84,14.578,14.578,0,0,1,244.241,29.263Zm14.579,9.232c4.494,0,8.139-4.134,8.139-9.232s-3.645-9.232-8.139-9.232-8.14,4.134-8.14,9.232S254.325,38.494,258.82,38.494ZM234.1,43.178H227.96V20.759h-8.569V15.691H242.67v5.068H234.1Zm129.214-6.184-2.362,6.184h-7.172l11.34-27.487h7.643l11.341,27.487h-7.174l-2.362-6.184Zm5.655-14.7h-.054l-3.839,10.06h7.729ZM347.318,43.178h-6.142V20.759h-8.569V15.691h23.278v5.068h-8.568Zm-45.7-13.915A14.578,14.578,0,1,1,316.2,43.84,14.578,14.578,0,0,1,301.623,29.263ZM316.2,38.494c4.5,0,8.141-4.134,8.141-9.232s-3.645-9.232-8.141-9.232-8.137,4.134-8.137,9.232S311.706,38.494,316.2,38.494Z" transform="translate(-152.233 -10.19)" fill="#b9b9b9" fill-rule="evenodd"/>
    </g>
  </g>
</svg>
