<svg id="Group_288" data-name="Group 288" xmlns="http://www.w3.org/2000/svg" xmlns:xlink="http://www.w3.org/1999/xlink" width="566.356" height="474.77" viewBox="0 0 566.356 474.77">
  <defs>
    <linearGradient id="linear-gradient" x1="0.5" x2="0.5" y2="1" gradientUnits="objectBoundingBox">
      <stop offset="0" stop-color="#96378a"/>
      <stop offset="1" stop-color="#4b1b45"/>
    </linearGradient>
  </defs>
  <path id="Path_3814" data-name="Path 3814" d="M555.239,197.722H491.444a228.534,228.534,0,0,0-19.329-32.686l49.194-49.194a11.087,11.087,0,1,0-15.679-15.679l-47.286,47.286c-3.733-4.314-7.549-8.462-11.614-12.527a237.437,237.437,0,0,0-22.9-20.076V66.233a11.033,11.033,0,1,0-22.067,0v33.6a231.828,231.828,0,0,0-237.095,0v-33.6a11.033,11.033,0,0,0-22.067,0v48.614a237.439,237.439,0,0,0-22.9,20.076c-4.065,4.065-7.964,8.213-11.614,12.527L60.808,100.163a11.087,11.087,0,0,0-15.679,15.679l49.194,49.194a224.058,224.058,0,0,0-19.329,32.686H11.033a11.033,11.033,0,1,0,0,22.067h54.5A231.444,231.444,0,0,0,453.947,454.81a11.038,11.038,0,1,0-16.26-14.932A209.806,209.806,0,0,1,283.3,507.9c-115.395,0-209.221-93.826-209.221-209.221S167.907,89.462,283.3,89.462s209.221,93.826,209.221,209.221a207.075,207.075,0,0,1-11.448,68.358,11.072,11.072,0,1,0,20.905,7.3A233.5,233.5,0,0,0,500.9,219.872h54.421a11.028,11.028,0,0,0,11.033-11.033A11.17,11.17,0,0,0,555.239,197.722Z" transform="translate(0 -55.2)" fill="url(#linear-gradient)"/>
  <circle id="Ellipse_41" data-name="Ellipse 41" cx="11.033" cy="11.033" r="11.033" transform="translate(459.217 347.93) rotate(-9.218)" fill="url(#linear-gradient)"/>
</svg>
