<svg xmlns="http://www.w3.org/2000/svg" width="153.99" height="31.844" viewBox="0 0 153.99 31.844">
  <g id="Group_168" data-name="Group 168" transform="translate(0)">
    <path id="path365" d="M852.562-3176.008a7.129,7.129,0,0,1,3.393-5.985,7.32,7.32,0,0,0-5.752-3.113c-2.422-.248-4.764,1.454-6,1.454-1.258,0-3.155-1.423-5.2-1.384a7.666,7.666,0,0,0-6.452,3.927c-2.781,4.827-.709,11.918,1.964,15.813,1.337,1.915,2.892,4.049,4.939,3.967,2-.076,2.745-1.272,5.158-1.272,2.391,0,3.092,1.272,5.178,1.231,2.145-.034,3.5-1.92,4.787-3.848a15.968,15.968,0,0,0,2.186-4.46,6.876,6.876,0,0,1-4.205-6.33" transform="translate(-831.234 3192.696)" fill="#fff"/>
    <path id="path367" d="M877.038-3204.606a7.019,7.019,0,0,0,1.613-5.032,7.181,7.181,0,0,0-4.626,2.391,6.677,6.677,0,0,0-1.647,4.844,5.915,5.915,0,0,0,4.66-2.2" transform="translate(-859.653 3209.638)" fill="#fff"/>
    <path id="path369" d="M958.853-3176.425h-4.741v-21.362h4.741Zm.533-27.738a2.7,2.7,0,0,1-.837,2.062,3.005,3.005,0,0,1-2.153.791,2.729,2.729,0,0,1-2-.812,2.763,2.763,0,0,1-.814-2.04,2.657,2.657,0,0,1,.836-2.018,2.9,2.9,0,0,1,2.068-.789,2.9,2.9,0,0,1,2.066.789,2.649,2.649,0,0,1,.837,2.018" transform="translate(-915.816 3207.794)" fill="#fff"/>
    <path id="path371" d="M999.166-3195.613a4.861,4.861,0,0,0-1.67-3.968,7.087,7.087,0,0,0-4.654-1.381,15.932,15.932,0,0,0-3.206.262v10.615a11.512,11.512,0,0,0,2.767.262,7.4,7.4,0,0,0,4.961-1.535,5.3,5.3,0,0,0,1.8-4.255m4.7-.226a8.934,8.934,0,0,1-2.415,6.542q-3.118,3.206-9.092,3.206a13.877,13.877,0,0,1-2.724-.206v11.465h-4.711v-29.22a43.629,43.629,0,0,1,7.735-.614q5.625,0,8.482,2.415a8.063,8.063,0,0,1,2.725,6.412" transform="translate(-937.486 3206.201)" fill="#fff"/>
    <path id="path373" d="M1072.638-3177.821H1067.9v-12.17q0-5.755-4.314-5.754a4.534,4.534,0,0,0-4.533,3.338,5.81,5.81,0,0,0-.221,1.714v12.873h-4.738v-31.169h4.738v12.842h.09a7.2,7.2,0,0,1,6.418-3.479,6.622,6.622,0,0,1,4.881,1.934q2.417,2.419,2.418,7.167Z" transform="translate(-985.305 3209.19)" fill="#fff"/>
    <path id="path375" d="M1138.948-3167.59a9.582,9.582,0,0,0-1.274-5.051,4.694,4.694,0,0,0-4.263-2.548,4.765,4.765,0,0,0-4.352,2.548,9.761,9.761,0,0,0-1.274,5.138,9.6,9.6,0,0,0,1.274,5.053,4.792,4.792,0,0,0,4.306,2.548,4.745,4.745,0,0,0,4.264-2.594,9.566,9.566,0,0,0,1.319-5.1m4.921-.125a11.714,11.714,0,0,1-2.812,8.085,10.04,10.04,0,0,1-7.822,3.254,9.548,9.548,0,0,1-7.493-3.121,11.351,11.351,0,0,1-2.79-7.866,11.605,11.605,0,0,1,2.879-8.131,9.967,9.967,0,0,1,7.755-3.163,9.759,9.759,0,0,1,7.559,3.119,11.256,11.256,0,0,1,2.724,7.822" transform="translate(-1032.91 3188.219)" fill="#fff"/>
    <path id="path377" d="M1217.987-3156.85h-4.742v-12.258q0-5.667-4.311-5.667a4.28,4.28,0,0,0-3.433,1.559,5.5,5.5,0,0,0-1.321,3.668v12.7h-4.74V-3172.1q0-2.814-.177-6.111h4.174l.222,3.3h.13a6.824,6.824,0,0,1,2.462-2.553,8.055,8.055,0,0,1,4.306-1.189,6.82,6.82,0,0,1,4.968,1.934q2.461,2.375,2.462,7.079Z" transform="translate(-1085.667 3188.219)" fill="#fff"/>
    <path id="path379" d="M1283.062-3169.837a6.466,6.466,0,0,0-.922-3.646,4.146,4.146,0,0,0-3.783-1.979,4.515,4.515,0,0,0-3.782,1.934,7.063,7.063,0,0,0-1.408,3.691Zm4.533,1.232a11.182,11.182,0,0,1-.176,2.152h-14.252a6.209,6.209,0,0,0,2.067,4.834,7.067,7.067,0,0,0,4.661,1.494,15.728,15.728,0,0,0,5.76-1.011l.748,3.289a17.906,17.906,0,0,1-7.165,1.315,10.357,10.357,0,0,1-7.8-2.92,10.767,10.767,0,0,1-2.834-7.838,12.231,12.231,0,0,1,2.637-8.037,9.107,9.107,0,0,1,7.472-3.424,7.959,7.959,0,0,1,6.991,3.427,11.506,11.506,0,0,1,1.89,6.719" transform="translate(-1133.605 3188.285)" fill="#fff"/>
  </g>
</svg>
