<svg xmlns="http://www.w3.org/2000/svg" xmlns:xlink="http://www.w3.org/1999/xlink" width="204.732" height="53" viewBox="0 0 204.732 53">
  <defs>
    <clipPath id="clip-path">
      <path id="path37641" d="M9880.493-5165.035h204.729v53H9880.493Z" transform="translate(-9880.493 5165.035)" fill="#b9b9b9"/>
    </clipPath>
  </defs>
  <g id="layer1" transform="translate(-104.338 -135.848)">
    <g id="g39870" transform="translate(104.338 135.848)">
      <path id="path37627" d="M122.864,181.654h-7.5l3.987-12.968Zm-11.022,13.109,2.345-7.9H123.8l2.345,7.9h7.974l-8.443-29.994c-.469-1.97-1.407-2.6-3.518-2.6H110.435v2.7h.938c1.407,0,2.11.445,2.11,1.524a5.572,5.572,0,0,1-.7,2.744l-8.442,25.632" transform="translate(-104.338 -153.064)" fill="#b9b9b9" fill-rule="evenodd"/>
      <path id="path37629" d="M200.984,194.763V164.558c0-1.572-.938-2.392-2.58-2.392h-7.27v2.7h.469c1.407,0,2.111.586,2.111,1.853v28.048" transform="translate(-161.116 -153.064)" fill="#b9b9b9"/>
      <path id="path37631" d="M238.957,194.763V164.558c0-1.572-.938-2.392-2.58-2.392h-7.27v2.7h.469c1.407,0,2.111.586,2.111,1.853v28.048" transform="translate(-185.957 -153.064)" fill="#b9b9b9"/>
      <path id="path37633" d="M277.608,164.03c0-2.158-1.642-3.424-4.221-3.424-2.814,0-4.221,1.266-4.221,3.424,0,2.2,1.407,3.494,4.221,3.494,2.58,0,4.221-1.29,4.221-3.494m-.234,29.713v-22a2.212,2.212,0,0,0-2.345-2.416h-7.27v2.65h.469c1.407,0,1.876.586,1.876,1.923v19.84" transform="translate(-211.241 -152.044)" fill="#b9b9b9" fill-rule="evenodd"/>
      <path id="path37635" d="M320.454,197.78v4.878a6.715,6.715,0,0,1-4.456,2.2c-1.407,0-2.111-.68-2.111-2.509,0-2.017.469-2.791,2.111-3.424a18.731,18.731,0,0,1,4.456-1.149m-10.319-5.839.7-.282a20.811,20.811,0,0,1,4.456-1.29,20.467,20.467,0,0,1,2.111-.187c2.345,0,3.049.774,3.049,2.931v.61c-3.283.54-4.221.727-6.1,1.126a18.9,18.9,0,0,0-2.814.938c-3.049,1.219-4.456,3.565-4.456,7.246,0,4.62,1.876,6.824,6.1,6.824a8.5,8.5,0,0,0,4.456-1.126,9.42,9.42,0,0,0,3.049-2.111v.75c0,1.524.7,2.251,2.111,2.251h7.035v-2.509H329.6q-2.11,0-2.11-1.9V193.231c0-6.238-2.111-8.349-8.208-8.349a24.788,24.788,0,0,0-5.863.68,17.486,17.486,0,0,0-4.925,1.876" transform="translate(-236.968 -167.924)" fill="#b9b9b9" fill-rule="evenodd"/>
      <path id="path37637" d="M386.546,209.712V193.156c1.641-1.524,2.814-2.111,4.456-2.111s2.11.7,2.11,3.189v15.478h7.27V193.062c0-3.424-.469-4.9-1.407-6.191a5.835,5.835,0,0,0-4.69-1.853c-2.814,0-4.925,1.032-8.208,3.869v-1.313c0-1.524-.7-2.275-2.111-2.275h-7.035v2.65h.234c1.407,0,2.111.586,2.111,1.923v19.84" transform="translate(-282.657 -168.013)" fill="#b9b9b9" fill-rule="evenodd"/>
      <g id="g37643" transform="translate(0.003 0)" clip-path="url(#clip-path)">
        <path id="path37645" d="M10250.506-5095.313h-10.787l10.318-14.728v-5.019h-15.479c-1.875,0-2.579.75-2.579,2.556v4.433h2.579v-.493c0-1.337.7-1.876,2.111-1.876h5.628l-10.553,14.727v5.065h18.761" transform="translate(-10110.268 5132.343)" fill="#b9b9b9"/>
        <path id="path37647" d="M10349.237-5124.675V-5152.3c0-2.228-.938-2.955-3.049-2.955h-6.331v3.049h.7c1.172,0,1.641.445,1.641,1.806v25.726Zm3.752,0h6.8v-20.848c0-2.111-.938-2.955-3.048-2.955h-3.753Zm-14.54,0v-23.8h-3.752c-2.11,0-3.049.844-3.049,2.955v20.848Zm29.314-13.883c0,12.921-9.381,22.349-22.044,22.349s-22.044-9.428-22.044-22.349,9.38-22.349,22.044-22.349,22.044,9.428,22.044,22.349m4.456,0c0-15.126-11.257-26.477-26.5-26.477-15.009,0-26.5,11.351-26.5,26.477,0,15.173,11.491,26.523,26.5,26.523,15.243,0,26.5-11.351,26.5-26.523" transform="translate(-10167.49 5165.035)" fill="#b9b9b9" fill-rule="evenodd"/>
      </g>
    </g>
  </g>
</svg>
