<svg xmlns="http://www.w3.org/2000/svg" width="209" height="68.436" viewBox="0 0 209 68.436">
  <g id="g3" transform="translate(0 0.001)">
    <path id="path5" d="M80.258,59.7c-7.777-5.01-18.331-5.889-35.352-1.166-18.146,4.264-24.2,7-32.141,1.51-3.052-2.7-4.147-7.036-3.33-13.287,1.9-10.191,7.017-20,16.115-30.878C30.629,10.217,35.34,5.36,41.56,3.41c4.767-1.223,4.322,2.523,3.745,3.059a4.614,4.614,0,0,0-2.422.612,6.272,6.272,0,0,0-2.5,4.264c-.136,3.307,3.287,2.619,4.763.8,1.591-2.046,3.943-5.965,2.093-9.617a5.435,5.435,0,0,0-3.778-2.5c-5.7-.326-11,2.39-15.9,5.391A69.456,69.456,0,0,0,3.451,34.441C.657,41.248-1.87,51,1.918,58.933c2.93,5.506,9.013,8.431,16.27,7.819,5.09-.535,11.245-2.18,15.384-3.173S58.9,55.3,65.864,67.977a9.4,9.4,0,0,1,8.1-4.59c4.757-.439,11.619,1.377,16.617,5.047-1.665-2.5-6.385-6.194-10.323-8.737Z" transform="translate(0 0)" fill="#b9b9b9"/>
    <path id="path7" d="M130.472,79.475c-3.963-2.6-11.929,2.371-18.309,10.9-5.834,7.649-8.353,16.538-5.612,20.649,4.078,4.837,11.649-2.2,14.869-5.965l.415-.44a46.937,46.937,0,0,0,5.518-7.9s1.5-2.486,1.577-2.6c.93-.171,2.05-.439,3.313-.8-.018.057-4.83,8.145-4.339,12.159.153,1.225.036,5.7,4.4,7.056,5.822.976,10.47-3.537,14.571-7.552,0,0,.7-.669,1.094-1.05-.1.4-.23.935-.23.935-1.7,5.927.593,7.171,2.03,7.63,4.343,1.263,9.532-5.047,9.549-5.047-.135,1.988-.528,3.632,1.567,4.951,1.978.708,3.979-.371,5.5-1.385,5.48-3.862,9.894-9.907,13.46-15.132h-2.274c-.027,0-5.612,8.1-9.239,9.855-.006,0-.666.339-1.046.071-.471-.4-.285-1.237.006-1.828.018-.039,14-24.3,14-24.3h-6.6s-.721,1.167-.78,1.244c-.044-.038-.15-.239-.224-.335-4.091-5.659-13.356,3.046-20.331,13.14a66.3,66.3,0,0,1-9.65,11.407s-5.252,4.814-7.5,1.355a6.676,6.676,0,0,1-.105-4.973c2.613-7.438,7.115-14.187,12.238-18.26,1.446-1.127,3.018-1.453,3.8-.975a1.657,1.657,0,0,1,.393,2.275,3.682,3.682,0,0,0-2.926,1.128c-1.531,1.606-2.063,3.155-1.576,4.608,2.365,3.365,7.08-3.289,6.852-7.342a4.353,4.353,0,0,0-2.014-3.5,6.944,6.944,0,0,0-6.058.058c-2.279.86-5.887,3.862-7.993,6.194-2.651,2.926-7.2,6.176-8.62,5.812.466-1.243,4.306-9.1.266-12.045h0ZM162.308,91.1a91.517,91.517,0,0,1,5.935-7.342c3.066-2.7,4.291-1.51,4.4-.67-2.861,5.124-6.238,10.994-9.412,16.271.007-.019-.994,1.51-.994,1.51a14.64,14.64,0,0,1-5.117,5.257,1.486,1.486,0,0,1-1.23-.134,1.3,1.3,0,0,1-.556-1.262c.138-1.644,1.812-6.671,6.977-13.631h0Zm-35.923,3.078s-.057.173-.086.229c-.007,0-2.879,4.684-2.879,4.684-1.733,2.314-3.9,5.221-6.6,6.616-.8.268-1.91.44-2.475-.267-1.2-1.434-.58-3.423-.079-5.029l.177-.574A47.571,47.571,0,0,1,120.38,89.3a.292.292,0,0,1,.112-.038.164.164,0,0,1,.018.057,9.531,9.531,0,0,0,5.958,4.493c.012,0,.024.019.024.057a.94.94,0,0,1-.108.305Zm2.721-5.525c-.013.038-1.279,2.944-1.279,2.944-.183.153-.473.077-.8,0l-.568-.1a5.1,5.1,0,0,1-3.547-3.154c-.573-2.753,1.779-4.914,2.816-5.7.994-.689,2.54-1.052,3.438-.344a3.61,3.61,0,0,1,.763,2.41,13.086,13.086,0,0,1-.818,3.939h0Z" transform="translate(-83.405 -62.318)" fill="#b9b9b9"/>
    <path id="path9" d="M491.459,35.821A3.887,3.887,0,0,0,487.7,33.66c-5.231.478-10.348,4.78-13.034,10.955a31.449,31.449,0,0,0-2.684,9.961,27.557,27.557,0,0,1,8.71-6.634,18.123,18.123,0,0,1,3.125-7.552c.989-1.473,2.967-3.843,5.188-3.213,1.941.651,1.259,6.023-1.321,11.223A36.056,36.056,0,0,1,479.9,58.688c-2.613,2.218-6.478,4.895-9.861,2.83-2.13-1.261-3.217-3.9-2.987-7.3,1.018-9.655,5.413-17.877,11.7-27.245,6.485-8.7,13.634-17.628,23.265-22.39a6.5,6.5,0,0,1,5.356-.612s-9.04,4.971-13.35,14.168c-1.1,2.333-2.621,5.487-1.085,8.278a3.228,3.228,0,0,0,3.374,1.491c5.282-1.224,8.695-6.157,11.483-10.668,1.617-3.422,3.053-6.826,3.053-10.611,0-.459-.024-1.07-.063-1.53,2.524-1.338,7.7,1.032,7.7,1.032,4.044,1.339,12.654,7.935,15.559,9.2,1.417-1.644,3.745-4.129,5.056-5.372l-1.9-1.166c-3.038-1.855-6.25-3.614-9.411-5.354a18.824,18.824,0,0,0-16-1.472c-1.169.42-2.237.784-2.237.784-2.207-2.409-5.827-2.18-8.494-1.53-9.592,2.753-18.5,9.464-28.044,21.108-7.019,9.12-11.373,17-13.694,24.779-1.789,5.238-2.332,12.944,2.034,17.513,3.712,3.88,8.634,3.04,12.11,1.644,7.531-3.709,14.3-11.7,17.673-20.9.814-2.734,1.717-6.6.316-9.541h0ZM508.776,7.008c-1,11.434-9.884,18.145-12.083,18.68-1.333.267-3.607-.325-1.577-5.123,2.99-6.463,8.093-11.95,13.569-14.761a2.926,2.926,0,0,1,.091,1.2Z" transform="translate(-362.279 -0.616)" fill="#b9b9b9"/>
    <path id="path11" d="M875.575,7.946c-4.781,2.715-9.736,4.474-15.735,3.862-1.663,1.874-3.281,3.805-4.773,5.793,8.42,2.141,17.346-2.619,22.324-7.15A35.144,35.144,0,0,0,885.357.127a41.843,41.843,0,0,1-9.783,7.819Z" transform="translate(-676.357 -0.102)" fill="#b9b9b9"/>
    <path id="polygon13" d="M480.251,88.842,483.79,83.1h-6.271l-3.537,5.747Z" transform="translate(-374.919 -65.729)" fill="#b9b9b9"/>
    <path id="path15" d="M659.847,63.2c-.674.459-1.622.106-1.267-.945.882-2.677,4.39-8.132,4.39-8.132L672.74,36.8h-6.692c-.318.523-1,1.722-1,1.722a9.186,9.186,0,0,0-1.617-1.91c-1.635-1.033-4.034-.545-5.688.392C650.549,41.208,645.3,49.52,641.16,56c0,0-4.358,7.205-6.777,7.741-1.889.153-1.694-2.391-1.612-2.984a48.558,48.558,0,0,1,4.135-12.046,92.537,92.537,0,0,0,11.045-9.024c7.821-7.476,14.415-15.946,15.379-17.839a15.251,15.251,0,0,1-2.275.248c-6.017,8.393-18.33,20.592-22.063,22.408,1.654-3.978,12.338-22.963,21.43-32.044l1.431-1.377c2.212-2.161,4.5-4.378,6.291-4.742.189-.019.432,0,.641.44a8.256,8.256,0,0,1-1.265,4.34l-1.007,2.065a23.339,23.339,0,0,0,2.363-.574c1.087-2.045,2.29-4.34,1.847-7.073a2.03,2.03,0,0,0-1.617-1.7c-2.712-.516-5.668,1.491-8.047,3.116l-.1.057c-12.227,9.579-22.551,23.383-31.578,42.236-.654.5-3.182,1.09-3.612.8a30.675,30.675,0,0,0,2.575-6.979,18.546,18.546,0,0,0,.188-2.313,4.866,4.866,0,0,0-1.869-4.264,6.46,6.46,0,0,0-5.3.191c-6.452,2.677-11.275,9.293-14.755,14.741-1.872,3.462-3.738,7.169-4.254,11.414-.364,3.326.377,5.468,2.268,6.539,1.945.994,4.393-.039,5.355-.536,6.537-3.441,11.1-10.343,14.7-16.653a21.083,21.083,0,0,0,3.6-.459.091.091,0,0,1,.061.02c-.085.286-.854,2.581-.854,2.581-2.282,6.691-3.337,11.242-1.182,13.938,3.08,3.805,8.179-.133,12.327-5.335-.89,6.233,2.34,7.208,4.8,6.731,2.829-.764,5.981-3.786,7.443-5.334-.47,1.816-.342,5.067,2.231,5.391,1.764.326,3.084-.633,4.611-1.456,5.478-2.983,12.036-12.923,13.738-15.8h-2.232c-2.42,3.658-5.5,8.454-9.374,10.73h0Zm-49.172-.666a3.013,3.013,0,0,1-.474-1.691c-.067-3.749,3.967-10.463,6.814-14.12h.006a11.075,11.075,0,0,0,5.526,5c-2.026,4.513-8.973,14.177-11.872,10.812ZM623.69,49.707a5.668,5.668,0,0,1-4.258-4.168c-.559-2.716,1.312-4.838,3.121-5.908a3.13,3.13,0,0,1,2.8-.517,2.837,2.837,0,0,1,1.012,2.524,15.317,15.317,0,0,1-.158,1.874l-.016.134a25.46,25.46,0,0,1-2.506,6.061h0Zm27.326,11.625s-.646.573-.646.573c-.919.822-1.865,1.7-3.006,1.261a1.145,1.145,0,0,1-.59-.861c-.052-2.352,1.007-4.531,2.034-6.653l.263-.555c2.954-4.933,6.388-10.745,11.431-14.779a2.841,2.841,0,0,1,2.745-.727,1.426,1.426,0,0,1,.485.936,1.573,1.573,0,0,1-.161.516c-1.408,2.276-2.75,4.666-4.054,6.96a96.539,96.539,0,0,1-8.5,13.327h0Z" transform="translate(-476.39 -2.973)" fill="#b9b9b9"/>
  </g>
</svg>
