<svg xmlns="http://www.w3.org/2000/svg" width="104" height="92.361" viewBox="0 0 104 92.361">
  <g id="Xiaomi_logo__2021-_" data-name="Xiaomi_logo_(2021-)" transform="translate(23.014)">
    <g id="Group_112" data-name="Group 112" transform="translate(0 0)">
      <g id="Group_111" data-name="Group 111">
        <path id="路径_1_" d="M-148.973-193.774c-5.375-5.354-13.1-5.953-22.548-5.953s-17.2.605-22.57,5.974-5.917,13.094-5.917,22.54.545,17.177,5.919,22.546,13.112,5.913,22.567,5.913,17.194-.543,22.566-5.913,5.92-13.1,5.92-22.546-.552-17.194-5.938-22.561Z" transform="translate(200.008 199.727)" fill="#fff"/>
      </g>
    </g>
    <g id="Group_114" data-name="Group 114" transform="translate(11.293 17.649)">
      <g id="Group_113" data-name="Group 113">
        <path id="形状结合" d="M-64.8-41.122a.357.357,0,0,1,.359.352V-19.7a.357.357,0,0,1-.359.349h-4.617a.356.356,0,0,1-.359-.349V-40.77a.356.356,0,0,1,.359-.352Zm-20.038,0c3.483,0,7.125.16,8.922,1.957,1.766,1.769,1.957,5.291,1.965,8.711V-19.7a.356.356,0,0,1-.358.349h-4.617a.356.356,0,0,1-.359-.349V-30.639c0-1.91-.115-3.873-1.1-4.862-.848-.85-2.43-1.045-4.075-1.085h-8.369a.355.355,0,0,0-.357.349V-19.7a.357.357,0,0,1-.36.349h-4.62a.354.354,0,0,1-.356-.349V-40.77a.354.354,0,0,1,.356-.352Zm1.033,8.393a.354.354,0,0,1,.356.35V-19.7a.354.354,0,0,1-.356.349h-4.85a.355.355,0,0,1-.359-.349V-32.379a.354.354,0,0,1,.359-.35Z" transform="translate(98.519 41.122)" fill="#171717"/>
      </g>
    </g>
  </g>
  <text id="Ecosystem" transform="translate(0 87.361)" fill="#fff" font-size="20" font-family="Montserrat-Medium, Montserrat" font-weight="500" letter-spacing="-0.04em"><tspan x="0" y="0">Ecosystem</tspan></text>
</svg>
