<svg xmlns="http://www.w3.org/2000/svg" width="206" height="36.256" viewBox="0 0 206 36.256">
  <g id="layer1" transform="translate(647.966 -300.055)">
    <path id="path3256" d="M-390.369,303.387v4.029h3.934a4.746,4.746,0,0,1,3.49,1.784c.515.577,11.845,13.423,12.117,13.761s.272.342.272.556v6.366a4.5,4.5,0,0,1-.087.869,1.389,1.389,0,0,1-.873.775,9,9,0,0,1-1.121.07l-3.938,0v4.029h22.091v-4.029h-4.157a8.145,8.145,0,0,1-1.113-.071,1.372,1.372,0,0,1-.869-.774,4.538,4.538,0,0,1-.09-.869v-6.362a.865.865,0,0,1,.148-.593l12.257-13.983a3.479,3.479,0,0,1,3.185-1.525h4.066v-4.029h-18.206v4.021h2.748a.77.77,0,0,1,.726.407.77.77,0,0,1-.067.829c-.058.082-7.622,8.977-7.717,9.064s-.156.066-.226-.029-7.544-9.035-7.544-9.035c-.527-.647-.115-1.236.5-1.236h2.678v-4.021Z" transform="translate(-100.909 -1.305)" fill="#b9b9b9"/>
    <path id="path3254" d="M-479.445,303.388v4.029h3.526c2.546,0,2.72,1.418,2.72,2.654v18.857c0,1.129.065,2.678-1.558,2.678h-4.351v4.025h18.578v-4.025h-4.532c-1.809,0-1.891-.828-1.912-2.587V312.864l25.515,22.767h6.489l-.342-25.713c.033-1.879.148-2.5,2.093-2.5h4.066v-4.025H-448.1v4.025h4.162c1.912,0,2.232.737,2.257,2.5l.227,13.456-22.149-19.986Z" transform="translate(-66.015 -1.306)" fill="#b9b9b9"/>
    <path id="path3252" d="M-629.117,300.055a31.105,31.105,0,0,0-12.36,2.472c-3.576,1.6-6.489,4.165-6.489,8.421a8.726,8.726,0,0,0,2.369,6,13.18,13.18,0,0,0,7.062,3.535c1.949.412,6.114,1.075,10.263,1.512a97.428,97.428,0,0,1,9.818,1.265c1.31.334,3.514.787,3.514,3.259a3.672,3.672,0,0,1-2.723,3.374,20.446,20.446,0,0,1-8.191,1.438,34.83,34.83,0,0,1-9.752-1.677,11.794,11.794,0,0,1-5.648-3.774,6.481,6.481,0,0,1-1.175-3.576h-4.532v12.69h5.035v-1.718a.717.717,0,0,1,.363-.628.717.717,0,0,1,.725.01,39.653,39.653,0,0,0,7.366,2.381,31.543,31.543,0,0,0,7.643.952,32.609,32.609,0,0,0,10.242-1.446,17.876,17.876,0,0,0,6.085-3,8.339,8.339,0,0,0,3.259-6.678,9.344,9.344,0,0,0-2.632-6.568,11.591,11.591,0,0,0-3.247-2.22,23.912,23.912,0,0,0-4-1.4,113.3,113.3,0,0,0-11.284-1.718c-2.942-.3-8.047-.73-10.086-1.36a2.431,2.431,0,0,1-1.879-2.253,3.105,3.105,0,0,1,1.714-2.637c1.809-1.133,5.459-1.838,9.266-1.838a26.873,26.873,0,0,1,10.737,2.1,11.723,11.723,0,0,1,2.554,1.525,7.68,7.68,0,0,1,2.517,4.21h4.067V301.658h-4.532v1.281c0,.412-.412.956-1.236.507a34.877,34.877,0,0,0-14.828-3.391Z" transform="translate(0 0)" fill="#b9b9b9"/>
    <path id="path3237" d="M-542.883,300.055c-7.14,0-14.721,2.472-19.006,6.365a15.825,15.825,0,0,0-5.171,11.738,15.594,15.594,0,0,0,5.171,11.779c4.614,4.149,11.536,6.374,19.006,6.374s14.552-2.2,19.055-6.374a16.34,16.34,0,0,0,5.1-11.779,15.676,15.676,0,0,0-5.1-11.729c-4.833-4.384-11.157-6.374-19.055-6.374Zm0,4.713a14.624,14.624,0,0,1,10.2,3.9,13.156,13.156,0,0,1,3.732,9.476,12.649,12.649,0,0,1-3.732,9.476,14.337,14.337,0,0,1-10.2,3.922,14.5,14.5,0,0,1-10.218-3.922,13.254,13.254,0,0,1-3.708-9.476,13.2,13.2,0,0,1,3.708-9.476A14.611,14.611,0,0,1-542.883,304.768Z" transform="translate(-31.693 0)" fill="#b9b9b9"/>
  </g>
</svg>
