<svg id="Apple_Watch_official_logo" xmlns="http://www.w3.org/2000/svg" width="159.568" height="35" viewBox="0 0 159.568 35">
  <g id="Group_169" data-name="Group 169">
    <path id="Path_3786" data-name="Path 3786" d="M57.118,27.716h-.073L52.56,9.39H47.283L42.816,27.716h-.074L38.588,9.39H33.036l6.986,25.657h5.239L49.875,17.51h.092l4.614,17.538h5.276L66.825,9.39H61.273Zm66.309-18.74c-6.618,0-10.57,4.38-10.57,11.729v3.1c0,7.424,3.934,11.673,10.551,11.673,6.636,0,9.946-4.135,9.946-8.76v-.469h-4.982c0,2.65-1.287,4.718-4.872,4.718-3.6,0-5.368-2.274-5.368-7.161v-3.1q0-7.245,5.331-7.255a4.555,4.555,0,0,1,4.908,4.793h4.982V17.98C133.354,12.98,129.641,8.977,123.427,8.977Zm-48.2.414L67.137,35.048h5.2l1.817-6.466H82.1l1.789,6.466h5.57L81.385,9.39Zm.041,15.244,2.864-10.188h.055L81,24.635ZM154.348,9.39v10.3H144.09V9.39h-5.2V35.048h5.2V24.108h10.258v10.94h5.221V9.39ZM89.363,13.826h7.463V35.048h5.184V13.826h7.482V9.39H89.363ZM23.282,19.1a7.924,7.924,0,0,1,3.7-6.659,7.978,7.978,0,0,0-6.27-3.478c-2.819-.212-5.209,1.611-6.543,1.611-1.353,0-3.44-1.565-5.654-1.522a8.353,8.353,0,0,0-7.08,4.388C-1.585,18.793.663,26.728,3.6,31.072,5.04,33.2,6.754,35.589,9.007,35.5c2.168-.087,2.988-1.435,5.609-1.435s3.358,1.435,5.651,1.39c2.333-.042,3.812-2.165,5.239-4.3a19.3,19.3,0,0,0,2.371-4.978A7.689,7.689,0,0,1,23.282,19.1ZM18.97,6.089A7.8,7.8,0,0,0,20.751.5a7.616,7.616,0,0,0-5.042,2.65,7.428,7.428,0,0,0-1.815,5.415A6.3,6.3,0,0,0,18.97,6.089Z" transform="translate(-0.001 -0.504)" fill="#fff"/>
  </g>
</svg>
