<svg xmlns="http://www.w3.org/2000/svg" xmlns:xlink="http://www.w3.org/1999/xlink" width="566.356" height="474.77" viewBox="0 0 566.356 474.77">
  <defs>
    <linearGradient id="linear-gradient" x1="0.332" x2="0.745" y2="0.969" gradientUnits="objectBoundingBox">
      <stop offset="0" stop-color="#20d9ff"/>
      <stop offset="1" stop-color="#003161"/>
    </linearGradient>
    <linearGradient id="linear-gradient-2" x1="0.5" x2="0.5" y2="1" gradientUnits="objectBoundingBox">
      <stop offset="0" stop-color="#96378a"/>
      <stop offset="1" stop-color="#4b1b45"/>
    </linearGradient>
  </defs>
  <circle id="Ellipse_59" data-name="Ellipse 59" cx="11.033" cy="11.033" r="11.033" transform="translate(205.736 265.632)" fill="#0b6a97"/>
  <circle id="Ellipse_60" data-name="Ellipse 60" cx="11.033" cy="11.033" r="11.033" transform="translate(247.797 268.429) rotate(-13.286)" fill="#0b6a97"/>
  <circle id="Ellipse_61" data-name="Ellipse 61" cx="11.033" cy="11.033" r="11.033" transform="translate(289.676 276.666) rotate(-45)" fill="#0b6a97"/>
  <circle id="Ellipse_62" data-name="Ellipse 62" cx="11.033" cy="11.033" r="11.033" transform="translate(338.469 265.632)" fill="#0b6a97"/>
  <circle id="Ellipse_63" data-name="Ellipse 63" cx="11.033" cy="11.033" r="11.033" transform="translate(223.289 320.891) rotate(-45)" fill="#0b6a97"/>
  <circle id="Ellipse_64" data-name="Ellipse 64" cx="11.033" cy="11.033" r="11.033" transform="translate(272.103 309.849)" fill="#0b6a97"/>
  <circle id="Ellipse_65" data-name="Ellipse 65" cx="11.033" cy="11.033" r="11.033" transform="translate(314.156 312.641) rotate(-13.286)" fill="#0b6a97"/>
  <path id="Path_4010" data-name="Path 4010" d="M477.2,256.543c0-.166-.083-.249-.166-.415C453.635,182.876,384.946,129.7,303.978,129.7c-80.884,0-149.574,53.176-173.051,126.428-.083.166-.083.249-.166.415A180.858,180.858,0,0,0,122.3,311.3c0,100.131,81.465,181.6,181.6,181.6s181.6-81.465,181.6-181.6A178.246,178.246,0,0,0,477.2,256.543ZM303.978,151.85c65.7,0,122.2,39.9,146.67,96.812H382.872A33.247,33.247,0,0,0,350.518,222.7h-93a33.177,33.177,0,0,0-32.354,25.966H157.391A159.572,159.572,0,0,1,303.978,151.85Zm57.573,104.03v7.632a11.029,11.029,0,0,1-11.033,11.033H315.095V244.763h35.423A11.154,11.154,0,0,1,361.551,255.879Zm-68.606-11.033v29.782H257.522a11.028,11.028,0,0,1-11.033-11.033v-7.632a11.028,11.028,0,0,1,11.033-11.033h35.423Zm11.033,225.9c-87.936,0-159.446-71.51-159.446-159.446a159.457,159.457,0,0,1,5.226-40.567h75.326a33.247,33.247,0,0,0,32.354,25.966h93a33.177,33.177,0,0,0,32.354-25.966h75.326a159.458,159.458,0,0,1,5.226,40.567C463.507,399.231,391.914,470.741,303.978,470.741Z" transform="translate(-20.842 -67.896)" fill="url(#linear-gradient)"/>
  <g id="Group_289" data-name="Group 289">
    <path id="Path_3814" data-name="Path 3814" d="M555.239,197.722H491.444a228.534,228.534,0,0,0-19.329-32.686l49.194-49.194a11.087,11.087,0,1,0-15.679-15.679l-47.286,47.286c-3.733-4.314-7.549-8.462-11.614-12.527a237.437,237.437,0,0,0-22.9-20.076V66.233a11.033,11.033,0,1,0-22.067,0v33.6a231.828,231.828,0,0,0-237.095,0v-33.6a11.033,11.033,0,0,0-22.067,0v48.614a237.439,237.439,0,0,0-22.9,20.076c-4.065,4.065-7.964,8.213-11.614,12.527L60.808,100.163a11.087,11.087,0,0,0-15.679,15.679l49.194,49.194a224.058,224.058,0,0,0-19.329,32.686H11.033a11.033,11.033,0,1,0,0,22.067h54.5A231.444,231.444,0,0,0,453.947,454.81a11.038,11.038,0,1,0-16.26-14.932A209.806,209.806,0,0,1,283.3,507.9c-115.395,0-209.221-93.826-209.221-209.221S167.907,89.462,283.3,89.462s209.221,93.826,209.221,209.221a207.075,207.075,0,0,1-11.448,68.358,11.072,11.072,0,1,0,20.905,7.3A233.5,233.5,0,0,0,500.9,219.872h54.421a11.028,11.028,0,0,0,11.033-11.033A11.17,11.17,0,0,0,555.239,197.722Z" transform="translate(0 -55.2)" fill="url(#linear-gradient-2)"/>
    <circle id="Ellipse_41" data-name="Ellipse 41" cx="11.033" cy="11.033" r="11.033" transform="translate(459.217 347.93) rotate(-9.218)" fill="url(#linear-gradient-2)"/>
  </g>
</svg>
