<svg xmlns="http://www.w3.org/2000/svg" width="149.467" height="35.533" viewBox="0 0 149.467 35.533">
  <path id="path1460" d="M38,18.389V1.244h5.347V2.378c0,.623.01,1.133.021,1.133s.349-.205.75-.456C48.849.093,55.723-.8,61.888.749,67.443,2.144,71.469,5.456,72.9,9.806a11.965,11.965,0,0,1-.128,7.828,13.311,13.311,0,0,1-6.876,7.2,22.479,22.479,0,0,1-10.14,2.212A23.487,23.487,0,0,1,47.1,25.5a20.275,20.275,0,0,1-3.134-1.592l-.614-.4V35.533H38Zm20.341,4.1a13.365,13.365,0,0,0,7.09-2.9,8.066,8.066,0,0,0,2.6-4.494,11.419,11.419,0,0,0,0-3.116,8.242,8.242,0,0,0-3.354-5.113A14.609,14.609,0,0,0,61.6,5.325a19.285,19.285,0,0,0-8.653-.711c-5.021.737-8.414,3.227-9.324,6.842a8.475,8.475,0,0,0,.2,4.822c1.206,3.419,4.761,5.693,9.786,6.261a29.972,29.972,0,0,0,4.736-.051Zm17.725-4.1V1.244h5.347V2.378c0,.623.012,1.133.026,1.133s.308-.184.654-.409a21.059,21.059,0,0,1,3.389-1.674,25.194,25.194,0,0,1,14.365-.7c7.606,1.91,12.085,7.141,11.663,13.622-.323,4.947-3.614,9.01-9.029,11.146a23.171,23.171,0,0,1-5.841,1.418,36.018,36.018,0,0,1-5.666,0,20.99,20.99,0,0,1-9.052-3.061l-.508-.335V35.533H76.069Zm20.47,4.075c4.165-.622,7.1-2.3,8.643-4.941a8.3,8.3,0,0,0,.9-5.469c-.691-3.938-4.151-6.663-9.45-7.441A18.478,18.478,0,0,0,86.5,5.925a8.474,8.474,0,0,0-4.952,6.013,11.486,11.486,0,0,0,0,3.189,7.96,7.96,0,0,0,2.667,4.528,13.711,13.711,0,0,0,7.514,2.89,27.893,27.893,0,0,0,4.808-.082Zm-80.62,4.548A23.912,23.912,0,0,1,8.6,25.323c-4.682-2-7.639-5.375-8.442-9.635a16.314,16.314,0,0,1-.112-3.523C.629,7.058,4.391,3.012,10.34,1.1A25.412,25.412,0,0,1,20.9.2c6.408.823,11.255,3.794,13.385,8.205a11.885,11.885,0,0,1-.571,11.309,14.231,14.231,0,0,1-4.079,4.113,20.866,20.866,0,0,1-9.037,3.08c-.72.09-4.01.163-4.678.1Zm3.793-4.466a14.535,14.535,0,0,0,6.9-2.342,8.42,8.42,0,0,0,3.1-4.083,6.631,6.631,0,0,0,.359-2.584,6.657,6.657,0,0,0-.356-2.577c-.978-3-3.839-5.226-7.837-6.106a19.26,19.26,0,0,0-10.622.7,9.74,9.74,0,0,0-4.921,4A8.327,8.327,0,0,0,5.7,16.06a8.957,8.957,0,0,0,5.366,5.371,17.752,17.752,0,0,0,5.056,1.161,32.227,32.227,0,0,0,3.589-.047ZM130,27.013c-.112-.013-.5-.052-.872-.086a21.886,21.886,0,0,1-8.329-2.5,13.04,13.04,0,0,1-6.195-7.17,12.031,12.031,0,0,1-.317-6.3,12.457,12.457,0,0,1,5.536-7.723C123.71.654,129.424-.493,134.941.2a18.52,18.52,0,0,1,10.986,4.877,11.712,11.712,0,0,1,3.484,7.089,15.294,15.294,0,0,1-.027,2.919c-.721,5.462-5.051,9.637-11.682,11.263a21.246,21.246,0,0,1-5.637.667c-1.023.011-1.951.009-2.063,0Zm3.516-4.441c3.53-.325,6.408-1.488,8.255-3.338a7.708,7.708,0,0,0,2.263-4.3,11.289,11.289,0,0,0,0-2.83C143.387,8.274,140.007,5.5,135,4.682a17.931,17.931,0,0,0-3.254-.259c-5.615,0-9.973,2.117-11.648,5.66a7.774,7.774,0,0,0-.73,3.452,7.566,7.566,0,0,0,1.308,4.452c1.664,2.5,4.821,4.1,9,4.553a28.313,28.313,0,0,0,3.844.031Z" fill="#fff"/>
</svg>
