<svg xmlns="http://www.w3.org/2000/svg" width="188" height="45.977" viewBox="0 0 188 45.977">
  <g id="Arçelik_logo" transform="translate(0 -0.01)">
    <path id="path48" d="M31.237.238l8.98,24.676a49.915,49.915,0,0,1-16.826,10.6A50.793,50.793,0,0,1,8.039,38.378L0,14.246a57.37,57.37,0,0,0,15.889-3.865A52.759,52.759,0,0,0,31.233.232l0,.006" transform="translate(0 0.126)" fill="#b9b9b9"/>
    <path id="path52" d="M136.144,36.485h-6.681L142.318,7.142H149ZM145.405.01h6.782l-2.329,5.36h-6.783ZM133.52.01h6.68L124.207,36.485h-6.68ZM116.572,13.972a1.813,1.813,0,0,0-2.021-2.023c-1.924,0-5.013,2.378-7.848,6.475a22.58,22.58,0,0,0-1.417,2.38C111.463,20.4,116.572,17.565,116.572,13.972ZM102.659,28.137c0,2.074.859,3.034,2.73,3.034,2.431,0,5.415-1.719,9.059-5.258l2.326,5.108c-3.236,3.493-7.741,6.174-12.095,6.174-5.363,0-8.3-2.934-8.3-7.945,0-3.64,1.468-7.94,4.3-12.292,4-6.171,9.413-10.523,15.03-10.523,4.355,0,7.087,2.628,7.087,6.78,0,7.284-7.643,12.4-19.739,12.851A8.61,8.61,0,0,0,102.659,28.137ZM93.05,14.88c0-1.467-.706-2.275-2.478-2.275-2.126,0-4.961,2.074-7.439,5.465-3.035,4.147-4.556,7.738-4.556,10.57a2.182,2.182,0,0,0,2.38,2.38c2.428,0,5.969-2.729,9.108-7.131l2.58,5.413C89.707,33.25,85.305,37.2,79.79,37.2c-4.858,0-7.643-3.339-7.643-7.945,0-5.055,2.48-9.916,5.819-14.213,4.152-5.365,9.008-8.6,13.663-8.6,4.809,0,7.29,2.833,7.29,7.032a12.762,12.762,0,0,1-.407,3.189l-5.971.858A8.313,8.313,0,0,0,93.05,14.88Zm-17.2-8.194A6.284,6.284,0,0,1,79.192,7.7L75.65,13.922a5.349,5.349,0,0,0-1.824-.255c-3.745,0-7.439,4-10.475,10.929L58.137,36.484h-6.68L64.312,7.141h6.578l-2.426,5.515C70.992,8.711,72.763,6.687,75.852,6.687ZM35.873,29.2a2.179,2.179,0,0,0,2.43,2.473c2.683,0,5.77-2.882,7.946-6.876.3-.559.606-1.163.859-1.72C38.858,23.583,35.873,26.164,35.873,29.2ZM49.436,15.084c0-1.771-.607-2.628-2.226-2.628-2.278,0-5.77,2.176-9.008,5.362l-1.519-5.665c3.239-3.035,7.641-5.717,11.843-5.717,4.35,0,7.085,2.934,7.085,7.488,0,3.59-1.67,8.6-3.9,12.494-3.291,5.819-8,10.778-14.019,10.778-4.808,0-8-2.984-8-7.486,0-7.084,6.53-11.03,19.283-11.536A11.888,11.888,0,0,0,49.436,15.084Zm29.9,23.423L81.1,43.345a9.257,9.257,0,0,1-6.31,2.641l-1.576-4.732a11.1,11.1,0,0,0,3.117-.755A10.334,10.334,0,0,0,79.335,38.506Zm68.744-2.021H141.4L157.392.01h6.68L156.936,16.2l12.6-10.219,1.669,5.667L159.82,20.5,162.6,36.484h-6.124L154.3,22.166l-6.224,14.319" transform="translate(16.794 0)" fill="#b9b9b9"/>
  </g>
</svg>
