<svg xmlns="http://www.w3.org/2000/svg" xmlns:xlink="http://www.w3.org/1999/xlink" width="276.857" height="456" viewBox="0 0 276.857 456">
  <defs>
    <linearGradient id="linear-gradient" y1="0.056" x2="0.571" y2="1" gradientUnits="objectBoundingBox">
      <stop offset="0" stop-color="#74ebfb"/>
      <stop offset="0.133" stop-color="#fff"/>
      <stop offset="1" stop-color="#2e5e64"/>
    </linearGradient>
  </defs>
  <path id="Path_3965" data-name="Path 3965" d="M244.146,0H62.854A43.76,43.76,0,0,0,19.143,43.711V57A8.141,8.141,0,0,0,11,65.143v8.143a8.141,8.141,0,0,0,8.143,8.143v8.143A8.141,8.141,0,0,0,11,97.714v8.143A8.141,8.141,0,0,0,19.143,114v8.143A8.141,8.141,0,0,0,11,130.286v8.143a8.141,8.141,0,0,0,8.143,8.143V412.289A43.76,43.76,0,0,0,62.854,456H244.146a43.76,43.76,0,0,0,43.711-43.711V43.711A43.76,43.76,0,0,0,244.146,0Zm27.425,412.289a27.458,27.458,0,0,1-27.425,27.425H62.854a27.457,27.457,0,0,1-27.425-27.425V43.711A27.457,27.457,0,0,1,62.854,16.286H244.146a27.458,27.458,0,0,1,27.425,27.425Z" transform="translate(-11)" fill="#0e555e"/>
  <path id="Path_3967" data-name="Path 3967" d="M36.143,20.286H60.571A8.143,8.143,0,0,0,60.571,4H36.143a8.143,8.143,0,0,0,0,16.286Z" transform="translate(110.429 28.571)" fill="#2e5e64"/>
  <path id="Path_3968" data-name="Path 3968" d="M32.143,20.2a8.562,8.562,0,0,0,5.781-2.361,8.563,8.563,0,0,0,2.361-5.781,8.547,8.547,0,0,0-2.361-5.781,8.526,8.526,0,0,0-11.563,0A8.379,8.379,0,0,0,24,12.054a8.562,8.562,0,0,0,2.361,5.781A8.562,8.562,0,0,0,32.143,20.2Z" transform="translate(81.857 28.661)" fill="#2e5e64"/>
  <circle id="Ellipse_48" data-name="Ellipse 48" cx="20.5" cy="20.5" r="20.5" transform="translate(122 391)" fill="#2e5e64"/>
  <path id="Path_3966" data-name="Path 3966" d="M15,332.714H234.857V7H15ZM147.672,41.957l8.143-8.143a8.142,8.142,0,0,1,11.514,11.514l-8.143,8.143a8.142,8.142,0,0,1-11.514-11.514Zm-4.747,16.261a8.176,8.176,0,0,1-11.563,11.563,8.258,8.258,0,0,1,0-11.563A8.526,8.526,0,0,1,142.924,58.219ZM115.1,33.814a8.142,8.142,0,0,1,11.514,11.514L102.186,69.757A8.142,8.142,0,0,1,90.672,58.243ZM41.814,66.386,74.386,33.814A8.142,8.142,0,1,1,85.9,45.328L53.328,77.9A8.142,8.142,0,0,1,41.814,66.386Zm46.471,13.9a8.176,8.176,0,0,1-13.924,5.781A8.176,8.176,0,1,1,85.924,74.5,8.547,8.547,0,0,1,88.286,80.286ZM41.814,107.1,58.1,90.814a8.142,8.142,0,0,1,11.514,11.514L53.328,118.614A8.142,8.142,0,1,1,41.814,107.1Zm0,40.714L115.1,74.529a8.142,8.142,0,0,1,11.514,11.514L53.328,159.328a8.142,8.142,0,1,1-11.514-11.514Z" transform="translate(17.571 50)" fill="url(#linear-gradient)"/>
</svg>
