<svg id="linkedin" xmlns="http://www.w3.org/2000/svg" width="42.057" height="42.057" viewBox="0 0 42.057 42.057">
  <path id="Path_3684" data-name="Path 3684" d="M35.66,36.359v0h.011V20.932c0-7.546-1.624-13.358-10.446-13.358a9.158,9.158,0,0,0-8.248,4.533h-.123V8.278H8.489V36.357H17.2v-13.9c0-3.661.694-7.2,5.227-7.2,4.467,0,4.533,4.178,4.533,7.435v13.67Z" transform="translate(6.387 5.699)" fill="#fff"/>
  <path id="Path_3685" data-name="Path 3685" d="M.4,7.977h8.72V36.055H.4Z" transform="translate(0.298 6.002)" fill="#fff"/>
  <path id="Path_3686" data-name="Path 3686" d="M5.05,0A5.074,5.074,0,1,0,10.1,5.05,5.052,5.052,0,0,0,5.05,0Z" fill="#fff"/>
</svg>
