<svg id="email-svgrepo-com" xmlns="http://www.w3.org/2000/svg" width="31.574" height="21.466" viewBox="0 0 31.574 21.466">
  <path id="Path_338" data-name="Path 338" d="M27.72.041,3.859.006A3.851,3.851,0,0,0,0,3.856V17.577a3.835,3.835,0,0,0,.3,1.5,3.864,3.864,0,0,0,3.555,2.36l23.861.024a3.85,3.85,0,0,0,3.854-3.85V3.9a3.835,3.835,0,0,0-.3-1.5A3.861,3.861,0,0,0,27.72.041ZM25.836,2.553,15.792,9.008,5.744,2.524Zm1.884,16.4L3.859,18.922A1.343,1.343,0,0,1,2.518,17.58V3.932l12.5,8.049.013.007.013.007.013.006.013.007.014.007.014.007.014.007.014.007.073.036.074.032.075.027.076.022.008,0,.008,0,.008,0,.008,0,.084.018.085.014.085.009.085,0h0l.085,0,.085-.008.085-.013.084-.018.008,0h.008l.008,0,.008,0,.076-.022.075-.027.074-.031.073-.035.014-.007.014-.007.014-.007.014-.007L16.531,12,16.544,12l.013-.007.013-.007L29.06,3.969v13.64a1.339,1.339,0,0,1-1.341,1.339Z" fill="#ed1651"/>
</svg>
