<svg xmlns="http://www.w3.org/2000/svg" width="25.041" height="17" viewBox="0 0 25.041 17">
  <g id="email-svgrepo-com" transform="translate(0 -12.089)">
    <path id="Path_338" data-name="Path 338" d="M21.982,12.089H3.059A3.062,3.062,0,0,0,0,15.148V26.03a3.062,3.062,0,0,0,3.059,3.059H21.982a3.062,3.062,0,0,0,3.059-3.059V15.148A3.062,3.062,0,0,0,21.982,12.089Zm-1.495,2-7.967,5.133L4.553,14.084Zm1.495,13.009H3.059A1.065,1.065,0,0,1,2,26.031V15.2L11.9,21.577c.013.008.028.014.041.022l.044.023a1.149,1.149,0,0,0,.237.092l.025.005a1.17,1.17,0,0,0,.268.034h0a1.152,1.152,0,0,0,.268-.034l.025-.005a1.156,1.156,0,0,0,.237-.092L13.1,21.6c.014-.008.028-.013.041-.022L23.046,15.2V26.03A1.065,1.065,0,0,1,21.982,27.094Z" transform="translate(0 0)" fill="#ed1651"/>
  </g>
</svg>
