<svg xmlns="http://www.w3.org/2000/svg" width="50.819" height="42.057" viewBox="0 0 50.819 42.057">
  <path id="twitter" d="M50.819,52.979a21.413,21.413,0,0,1-6,1.676A10.52,10.52,0,0,0,49.4,48.789a20.592,20.592,0,0,1-6.606,2.569A10.352,10.352,0,0,0,35.183,48,10.513,10.513,0,0,0,24.771,58.615a11.122,11.122,0,0,0,.241,2.42,29.315,29.315,0,0,1-21.474-11.1A10.836,10.836,0,0,0,2.112,55.3,10.68,10.68,0,0,0,6.74,64.118a10.145,10.145,0,0,1-4.707-1.307v.116A10.614,10.614,0,0,0,10.38,73.354a10.219,10.219,0,0,1-2.732.349,9.049,9.049,0,0,1-1.972-.181,10.544,10.544,0,0,0,9.735,7.392A20.693,20.693,0,0,1,2.493,85.441,19.164,19.164,0,0,1,0,85.295a28.943,28.943,0,0,0,15.983,4.762c19.171,0,29.653-16.176,29.653-30.2,0-.469-.016-.922-.038-1.372A21,21,0,0,0,50.819,52.979Z" transform="translate(0 -48)" fill="#fff"/>
</svg>
