<svg xmlns="http://www.w3.org/2000/svg" width="29.236" height="29.501" viewBox="0 0 29.236 29.501">
  <path id="Path_1" data-name="Path 1" d="M25.091,6.011a14.194,14.194,0,0,0-9.506-4.8,13.885,13.885,0,0,0-5.482.621A13.626,13.626,0,0,0,5.463,4.432,13.272,13.272,0,0,0,.8,13.933a13.569,13.569,0,0,0,.314,3.629,13.771,13.771,0,0,0,.518,1.754A13.91,13.91,0,0,0,2.38,21L0,28.076l7.643-1.529a14.295,14.295,0,0,0,4.88,1.825,14.173,14.173,0,0,0,1.726.2h.006a13.866,13.866,0,0,0,5.413-.792,13.608,13.608,0,0,0,4.474-2.665,13.405,13.405,0,0,0,4.3-11.925,13.668,13.668,0,0,0-.637-2.57A13.869,13.869,0,0,0,26.68,8.2a14.047,14.047,0,0,0-1.592-2.189h0ZM14.365,26.27a11.873,11.873,0,0,1-5.842-1.917l-.415-.273-4.514.886,1.4-4.172-.259-.452a11.517,11.517,0,0,1-.717-1.473,11.4,11.4,0,0,1-.5-1.548,11.273,11.273,0,0,1-.27-1.6A11.159,11.159,0,0,1,3.214,14.1,11.036,11.036,0,0,1,7.075,6.216a11.327,11.327,0,0,1,3.848-2.163,11.563,11.563,0,0,1,4.56-.528A11.852,11.852,0,0,1,23.4,7.492a11.69,11.69,0,0,1,2.238,3.759A11.308,11.308,0,0,1,26.3,15.68a11.055,11.055,0,0,1-3.7,7.727,11.31,11.31,0,0,1-3.73,2.212,11.52,11.52,0,0,1-4.5.647h0Zm6.692-8.1c-.083-.048-.248-.143-.453-.259s-.452-.255-.7-.391-.491-.272-.694-.381-.364-.193-.441-.226a2.021,2.021,0,0,0-.218-.084.586.586,0,0,0-.2-.029.384.384,0,0,0-.186.058.692.692,0,0,0-.185.176c-.063.082-.153.189-.257.306s-.221.244-.336.368-.23.244-.329.347-.182.188-.236.241a.68.68,0,0,1-.16.123.406.406,0,0,1-.169.049.524.524,0,0,1-.192-.028,1.181,1.181,0,0,1-.228-.106c-.084-.049-.215-.112-.385-.2s-.379-.2-.617-.343a8.891,8.891,0,0,1-.793-.541,9.623,9.623,0,0,1-.913-.8,8.775,8.775,0,0,1-.676-.753c-.2-.253-.383-.5-.537-.731s-.284-.44-.387-.614-.179-.314-.226-.4a.6.6,0,0,1-.076-.234.372.372,0,0,1,.03-.183.529.529,0,0,1,.1-.147,1.442,1.442,0,0,1,.135-.123c.042-.035.086-.076.131-.121s.092-.093.139-.143l.142-.152c.047-.051.095-.1.141-.148a1.644,1.644,0,0,0,.119-.134,1.5,1.5,0,0,0,.091-.127c.027-.043.053-.087.079-.134l.086-.154a.607.607,0,0,0,.065-.163.545.545,0,0,0,.013-.155.669.669,0,0,0-.026-.146,1.058,1.058,0,0,0-.051-.138c-.02-.045-.073-.187-.146-.386s-.166-.456-.264-.729-.2-.563-.3-.829l-.244-.685a1.563,1.563,0,0,0-.194-.391.61.61,0,0,0-.2-.185.536.536,0,0,0-.193-.06c-.062-.008-.121-.009-.175-.016l-.163-.019-.166-.016-.169-.014-.172-.013a1.313,1.313,0,0,0-.266.014,1.287,1.287,0,0,0-.254.066,1.261,1.261,0,0,0-.233.116,1.238,1.238,0,0,0-.205.162c-.085.08-.209.187-.347.33a3.692,3.692,0,0,0-.437.544,3.489,3.489,0,0,0-.389.8,4.075,4.075,0,0,0-.2,1.106,4.307,4.307,0,0,0,.14,1.255,6.712,6.712,0,0,0,.4,1.123,8.64,8.64,0,0,0,.446.85c.133.222.237.375.279.436s.206.333.483.734a18.6,18.6,0,0,0,1.158,1.5,15.931,15.931,0,0,0,1.766,1.774,11.435,11.435,0,0,0,2.306,1.546c.2.1.393.19.574.273s.351.157.511.225.311.13.452.186l.4.156a4.84,4.84,0,0,0,1.612.291,4.79,4.79,0,0,0,.546-.027,2.626,2.626,0,0,0,.609-.145,4.616,4.616,0,0,0,.714-.321,3.549,3.549,0,0,0,.65-.455,1.611,1.611,0,0,0,.416-.547,4.476,4.476,0,0,0,.191-.555,3.818,3.818,0,0,0,.1-.478,2.246,2.246,0,0,0,.024-.361.509.509,0,0,0-.035-.2.4.4,0,0,0-.084-.1,1.06,1.06,0,0,0-.135-.1c-.053-.035-.114-.071-.183-.111l-.229-.132h0Z" fill="#1eaf44"/>
</svg>
