<svg xmlns="http://www.w3.org/2000/svg" xmlns:xlink="http://www.w3.org/1999/xlink" width="296" height="122.672" viewBox="0 0 296 122.672">
  <defs>
    <linearGradient id="linear-gradient" x1="0.162" x2="0.801" y2="1" gradientUnits="objectBoundingBox">
      <stop offset="0" stop-color="#cf4722"/>
      <stop offset="1" stop-color="#612d00"/>
    </linearGradient>
  </defs>
  <text id="Ücretsiz_Kargo_" data-name="Ücretsiz Kargo!" transform="translate(148 112.672)" fill="#cf4722" font-size="40" font-family="Montserrat-Bold, Montserrat" font-weight="700" letter-spacing="-0.04em"><tspan x="-147.52" y="0">Ücretsiz Kargo!</tspan></text>
  <path id="Union_4" data-name="Union 4" d="M-2061.825,55.083h-17.184a11.6,11.6,0,0,1-11.184,8.584,11.6,11.6,0,0,1-11.184-8.584h-7.531a2.894,2.894,0,0,1-2.894-2.894,2.894,2.894,0,0,1,2.894-2.894h7.48a11.6,11.6,0,0,1,11.234-8.779,11.6,11.6,0,0,1,11.234,8.779h17.083a11.6,11.6,0,0,1,11.234-8.779,11.6,11.6,0,0,1,11.234,8.779h5.455V34.368l-4.215-5.429h-22.507a2.894,2.894,0,0,1-2.894-2.893V5.788h-45.339a2.894,2.894,0,0,1-2.894-2.894A2.894,2.894,0,0,1-2108.907,0h48.234a2.893,2.893,0,0,1,2.894,2.894V5.788h12.348a2.9,2.9,0,0,1,2.587,1.594l8.681,17.267-.005,0,5.4,6.951a2.892,2.892,0,0,1,.608,1.775v18.81a2.9,2.9,0,0,1-2.894,2.894h-8.4a11.6,11.6,0,0,1-11.184,8.585A11.6,11.6,0,0,1-2061.825,55.083Zm5.4-2.992a5.793,5.793,0,0,0,5.788,5.788,5.793,5.793,0,0,0,5.788-5.788,5.793,5.793,0,0,0-5.788-5.788A5.793,5.793,0,0,0-2056.429,52.091Zm-39.552,0a5.794,5.794,0,0,0,5.788,5.788,5.794,5.794,0,0,0,5.789-5.788,5.8,5.8,0,0,0-5.789-5.788A5.794,5.794,0,0,0-2095.98,52.091Zm38.2-28.94h16.383l-5.82-11.576h-10.563Zm-54.6,17.268a2.893,2.893,0,0,1-2.894-2.894,2.894,2.894,0,0,1,2.894-2.894h13.313a2.894,2.894,0,0,1,2.894,2.894,2.894,2.894,0,0,1-2.894,2.894Zm-4.727-11.383A2.893,2.893,0,0,1-2120,26.143a2.894,2.894,0,0,1,2.894-2.894h24.7a2.893,2.893,0,0,1,2.893,2.894,2.892,2.892,0,0,1-2.893,2.894Zm4.727-11.382a2.893,2.893,0,0,1-2.894-2.894,2.894,2.894,0,0,1,2.894-2.894h24.7a2.893,2.893,0,0,1,2.893,2.894,2.893,2.893,0,0,1-2.893,2.894Z" transform="translate(2222.082)" fill="url(#linear-gradient)"/>
</svg>
