<svg xmlns="http://www.w3.org/2000/svg" xmlns:xlink="http://www.w3.org/1999/xlink" width="340" height="122.671" viewBox="0 0 340 122.671">
  <defs>
    <linearGradient id="linear-gradient" x1="0.23" x2="0.731" y2="1" gradientUnits="objectBoundingBox">
      <stop offset="0" stop-color="#048725"/>
      <stop offset="1" stop-color="#003e13"/>
    </linearGradient>
  </defs>
  <text id="Hızlı_Geri_Ödeme_" data-name="Hızlı Geri Ödeme!" transform="translate(170 112.671)" fill="#048725" font-size="40" font-family="Montserrat-Bold, Montserrat" font-weight="700" letter-spacing="-0.04em"><tspan x="-169.04" y="0">Hızlı Geri Ödeme!</tspan></text>
  <path id="wallet" d="M684.727,1029.12h-8.471c-.744-5.295-5.35-9.123-11.3-9.123H621.628a4.566,4.566,0,0,0-4.561,4.561v19.006a1.52,1.52,0,0,0,3.041,0v-7.6a3.805,3.805,0,0,1,3.8-3.8h60.818a1.522,1.522,0,0,1,1.52,1.52v9.123H666.482a6.85,6.85,0,0,0-6.842,6.842v9.123a6.85,6.85,0,0,0,6.842,6.842h19.766v9.883a3.805,3.805,0,0,1-3.8,3.8H623.909a3.805,3.805,0,0,1-3.8-3.8,1.52,1.52,0,0,0-3.041,0,6.85,6.85,0,0,0,6.842,6.842h58.537a6.85,6.85,0,0,0,6.842-6.842v-41.812a4.566,4.566,0,0,0-4.561-4.561Zm-64.619,1.156v-5.718a1.522,1.522,0,0,1,1.52-1.52h43.333c4.268,0,7.5,2.481,8.215,6.082H623.909A6.8,6.8,0,0,0,620.108,1030.276Zm46.374,32.294a3.805,3.805,0,0,1-3.8-3.8v-9.123a3.805,3.805,0,0,1,3.8-3.8h19.766v16.725Zm5.322-14.444a6.082,6.082,0,1,0,6.082,6.082A6.089,6.089,0,0,0,671.8,1048.125Zm0,9.123a3.041,3.041,0,1,1,3.041-3.041A3.044,3.044,0,0,1,671.8,1057.248Zm-41.052,3.041H610.985a1.52,1.52,0,1,1,0-3.041h19.766a1.52,1.52,0,1,1,0,3.041Zm0-9.123H605.664a1.52,1.52,0,1,1,0-3.041h25.087a1.52,1.52,0,1,1,0,3.041Zm0,18.245H616.307a1.52,1.52,0,1,1,0-3.041h14.444a1.52,1.52,0,1,1,0,3.041Z" transform="translate(-476.716 -1019.997)" fill="url(#linear-gradient)"/>
</svg>
