<svg xmlns="http://www.w3.org/2000/svg" width="75.197" height="54.689" viewBox="0 0 75.197 54.689">
  <path id="clock_fast_icon_137750" d="M48.853,4A27.344,27.344,0,1,1,21.508,31.344,27.344,27.344,0,0,1,48.853,4m0,6.836A20.508,20.508,0,1,0,69.361,31.344,20.508,20.508,0,0,0,48.853,10.836m-3.418,6.836h5.127v12.92l7.964,7.964L54.9,42.18l-9.468-9.468V17.672M4.418,51.853a3.418,3.418,0,1,1,0-6.836H17.509a35.083,35.083,0,0,0,4,6.836H4.418m3.418-17.09a3.418,3.418,0,0,1,0-6.836h7.007l-.171,3.418.171,3.418H7.836m3.418-17.09a3.418,3.418,0,1,1,0-6.836H21.508a35.083,35.083,0,0,0-4,6.836Z" transform="translate(-1 -4)" fill="#fff"/>
</svg>
