<svg xmlns="http://www.w3.org/2000/svg" width="147.167" height="99.218" viewBox="0 0 147.167 99.218">
  <g id="layer1" transform="translate(-24.158 -110.636)">
    <g id="g2402" transform="translate(24.158 110.636)">
      <g id="g3035" transform="translate(0 0)">
        <path id="path2405" d="M568.919,677.672l-30.26-52.59L560.4,612.595l37.628,65.077H568.919" transform="translate(-472.598 -612.595)" fill="#b9b9b9"/>
        <path id="path2407" d="M196.6,931.874,218.338,919.3l11.5,19.939H200.818l-4.218-7.368" transform="translate(-180.878 -874.166)" fill="#b9b9b9"/>
        <path id="path2409" d="M486.489,1137.721h6.187v-25.029h-6.187Z" transform="translate(-428.106 -1039.094)" fill="#b9b9b9"/>
        <path id="path2411" d="M947.824,1136.845c-6.918,0-11.08-3.572-11.305-8.606h6.525c0,1.575.984,3.881,5.2,3.965,2.812,0,4.134-1.659,4.134-2.9-.169-1.969-2.644-2.137-5.287-2.559a22.646,22.646,0,0,1-6.524-1.744,6.706,6.706,0,0,1-3.487-6.018c0-4.472,3.881-8.015,10.349-8.015,6.271,0,10.237,3.29,10.659,8.184h-6.3c-.056-1.322-.309-3.4-4.022-3.4-2.5,0-4.162.506-4.3,2.25,0,2.559,5.2,2.39,9.252,3.459,3.881.984,6.356,3.4,6.356,6.778,0,6.215-5.034,8.606-11.249,8.606" transform="translate(-811.906 -1037.627)" fill="#b9b9b9"/>
        <path id="path2415" d="M369.73,780.307l21.739-12.543L415.852,810H393.1v6.187h-6.187v-6.215l-17.183-29.67" transform="translate(-328.53 -744.928)" fill="#b9b9b9"/>
        <path id="path2417" d="M297.933,1088.931a13.065,13.065,0,0,1-13.049-12.993,12.915,12.915,0,0,1,13.049-12.88,12.718,12.718,0,0,1,7.368,2.222v-10.49h6.187v33.551H305.3v-1.659A13.391,13.391,0,0,1,297.933,1088.931Zm-7.115-12.993a7.242,7.242,0,1,0,7.284-7.2,7.27,7.27,0,0,0-7.284,7.2" transform="translate(-256.171 -989.713)" fill="#b9b9b9" fill-rule="evenodd"/>
        <path id="path2419" d="M565.956,1054.79h6.1v33.551h-6.1v-1.659a13.253,13.253,0,0,1-7.453,2.25,13.047,13.047,0,0,1-12.965-12.993,13.115,13.115,0,0,1,20.417-10.659Zm-14.4,21.149a7.2,7.2,0,0,0,14.4,0,7.2,7.2,0,1,0-14.4,0" transform="translate(-478.465 -989.713)" fill="#b9b9b9" fill-rule="evenodd"/>
        <path id="path2421" d="M752.847,1136.845a13.065,13.065,0,0,1-12.965-12.993,12.914,12.914,0,0,1,12.965-12.88,12.532,12.532,0,0,1,7.368,2.222v-2H766.4v25.057h-6.187v-1.659a12.978,12.978,0,0,1-7.368,2.25Zm-6.946-12.993a7.252,7.252,0,0,0,7.2,7.115,7.178,7.178,0,0,0,7.115-7.115,7.252,7.252,0,0,0-7.115-7.2,7.325,7.325,0,0,0-7.2,7.2" transform="translate(-644.208 -1037.627)" fill="#b9b9b9" fill-rule="evenodd"/>
        <path id="path2423" d="M95.738,1123.851a7.243,7.243,0,0,0,14.483,0,7.242,7.242,0,0,0-14.483,0Zm7.031,12.993a13.071,13.071,0,0,1-12.993-12.993,13.137,13.137,0,0,1,20.445-10.659v-2h6.1v25.057h-6.1v-1.659a13.253,13.253,0,0,1-7.453,2.25" transform="translate(-89.776 -1037.626)" fill="#b9b9b9" fill-rule="evenodd"/>
      </g>
    </g>
  </g>
</svg>
