<svg xmlns="http://www.w3.org/2000/svg" width="276.857" height="456" viewBox="0 0 276.857 456">
  <path id="Path_3802" data-name="Path 3802" d="M244.146,0H62.854A43.76,43.76,0,0,0,19.143,43.711V57A8.141,8.141,0,0,0,11,65.143v8.143a8.141,8.141,0,0,0,8.143,8.143v8.143A8.141,8.141,0,0,0,11,97.714v8.143A8.141,8.141,0,0,0,19.143,114v8.143A8.141,8.141,0,0,0,11,130.286v8.143a8.141,8.141,0,0,0,8.143,8.143V412.289A43.76,43.76,0,0,0,62.854,456H244.146a43.76,43.76,0,0,0,43.711-43.711V43.711A43.76,43.76,0,0,0,244.146,0Zm27.425,412.289a27.458,27.458,0,0,1-27.425,27.425H62.854a27.457,27.457,0,0,1-27.425-27.425V43.711A27.457,27.457,0,0,1,62.854,16.286H244.146a27.458,27.458,0,0,1,27.425,27.425Z" transform="translate(-11)" fill="#0e555e"/>
  <path id="Path_3803" data-name="Path 3803" d="M36.143,20.286H60.571A8.143,8.143,0,0,0,60.571,4H36.143a8.143,8.143,0,0,0,0,16.286Z" transform="translate(110.429 28.571)" fill="#2e5e64"/>
  <path id="Path_3804" data-name="Path 3804" d="M32.143,20.2a8.562,8.562,0,0,0,5.781-2.361,8.563,8.563,0,0,0,2.361-5.781,8.547,8.547,0,0,0-2.361-5.781,8.526,8.526,0,0,0-11.563,0A8.379,8.379,0,0,0,24,12.054a8.562,8.562,0,0,0,2.361,5.781A8.562,8.562,0,0,0,32.143,20.2Z" transform="translate(81.857 28.661)" fill="#2e5e64"/>
  <circle id="Ellipse_33" data-name="Ellipse 33" cx="20.5" cy="20.5" r="20.5" transform="translate(122 391)" fill="#2e5e64"/>
</svg>
