<svg xmlns="http://www.w3.org/2000/svg" width="87.72" height="87.72" viewBox="0 0 87.72 87.72">
  <g id="Xiaomi_logo__2021-_" data-name="Xiaomi_logo_(2021-)" transform="translate(0)">
    <g id="Group_112" data-name="Group 112" transform="translate(0 0)">
      <g id="Group_111" data-name="Group 111">
        <path id="路径_1_" d="M-121.431-190.562c-8.276-8.244-20.175-9.165-34.717-9.165-14.56,0-26.477.932-34.75,9.2s-9.11,20.161-9.11,34.7.839,26.447,9.114,34.713,20.188,9.1,34.746,9.1,26.473-.837,34.744-9.1,9.115-20.168,9.115-34.713c0-14.562-.85-26.473-9.143-34.737Z" transform="translate(200.008 199.727)" fill="#fff"/>
      </g>
    </g>
    <g id="Group_114" data-name="Group 114" transform="translate(17.388 27.173)">
      <g id="Group_113" data-name="Group 113">
        <path id="形状结合" d="M-46.6-41.122a.549.549,0,0,1,.552.542V-8.133A.55.55,0,0,1-46.6-7.6h-7.109a.548.548,0,0,1-.553-.538V-40.58a.548.548,0,0,1,.553-.542Zm-30.852,0c5.363,0,10.971.246,13.736,3.013,2.719,2.724,3.014,8.146,3.025,13.413V-8.134a.547.547,0,0,1-.552.538h-7.108a.548.548,0,0,1-.553-.538V-24.981c-.008-2.941-.177-5.964-1.693-7.486-1.306-1.309-3.742-1.609-6.275-1.671H-89.754a.546.546,0,0,0-.55.537V-8.133a.55.55,0,0,1-.555.538h-7.113a.545.545,0,0,1-.548-.538V-40.58a.545.545,0,0,1,.548-.542ZM-75.857-28.2a.544.544,0,0,1,.548.538V-8.133a.546.546,0,0,1-.548.538h-7.467a.547.547,0,0,1-.553-.538V-27.661a.546.546,0,0,1,.553-.538Z" transform="translate(98.519 41.122)" fill="#171717"/>
      </g>
    </g>
  </g>
</svg>
