<?xml version="1.0"?>
<svg width="566.356" height="474.77" xmlns="http://www.w3.org/2000/svg" xmlns:svg="http://www.w3.org/2000/svg" xmlns:xlink="http://www.w3.org/1999/xlink">
 <defs>
  <linearGradient gradientUnits="objectBoundingBox" id="linear-gradient" x1="0.33" x2="0.74" y2="0.97">
   <stop offset="0" stop-color="#20d9ff"/>
   <stop offset="1" stop-color="#003161"/>
  </linearGradient>
  <linearGradient gradientUnits="objectBoundingBox" id="linear-gradient-2" x1="0.5" x2="0.5" y2="1">
   <stop offset="0" stop-color="#96378a"/>
   <stop offset="1" stop-color="#4b1b45"/>
  </linearGradient>
  <symbol height="463" id="svg_5" viewBox="0 0 463 463" width="463" xmlns="http://www.w3.org/2000/svg" xmlns:xlink="http://www.w3.org/1999/xlink">
   <defs>
    <linearGradient gradientUnits="objectBoundingBox" id="svg_3" x1="0.5" x2="0.5" y1="-0.02" y2="1.03">
     <stop offset="0" stop-color="#933687"/>
     <stop offset="1" stop-color="#4c1c46"/>
    </linearGradient>
   </defs>
   <g id="svg_1" transform="translate(0.029)">
    <path d="m439.81,130.57a228.69,228.69 0 0 0 -19.34,-32.7l-13.78,-17.6c-3.73,-4.32 -7.55,-8.47 -11.62,-12.54a237.58,237.58 0 0 0 -22.91,-20.09l-22.08,-15.02a231.96,231.96 0 0 0 -237.22,0l-22.08,15.02a237.58,237.58 0 0 0 -22.91,20.09c-4.07,4.07 -7.97,8.22 -11.62,12.54l-13.78,17.6a224.21,224.21 0 0 0 -19.34,32.69l-9.46,22.08a231.57,231.57 0 0 0 388.63,235.16a11.04,11.04 0 1 0 -16.27,-14.94a209.92,209.92 0 0 1 -154.48,68.06c-115.46,0 -209.33,-93.88 -209.33,-209.33s93.87,-209.34 209.33,-209.34s209.34,93.87 209.34,209.33a207.19,207.19 0 0 1 -11.45,68.4a11.08,11.08 0 0 0 20.91,7.3a233.63,233.63 0 0 0 -1.07,-154.55l-9.47,-22.16z" data-name="Path 4011" fill="url(#svg_3)" id="svg_4" transform="translate(0)"/>
    <circle cx="11.05" cy="11.05" data-name="Ellipse 66" fill="url(#svg_3)" id="svg_2" r="11.05" transform="translate(407.53 336.078) rotate(-9.218)"/>
   </g>
  </symbol>
 </defs>
 <g class="layer">
  <title>Layer 1</title>
  <path d="m101.46,243.39a180.88,180.88 0 0 1 8.46,-54.75c0.09,-0.16 0.09,-0.25 0.17,-0.41c23.48,-73.25 92.17,-126.43 173.05,-126.43c80.97,0 149.66,53.18 173.05,126.43c0.08,0.16 0.17,0.25 0.17,0.41a178.26,178.26 0 0 1 8.3,54.75c0,100.14 -81.47,181.6 -181.6,181.6s-181.6,-81.46 -181.6,-181.6zm22.23,0c0,87.94 71.51,159.45 159.45,159.45s159.53,-71.51 159.36,-159.45a159.43,159.43 0 0 0 -5.22,-40.56l-75.33,0a33.18,33.18 0 0 1 -32.35,25.96l-93,0a33.24,33.24 0 0 1 -32.36,-25.96l-75.33,0a159.53,159.53 0 0 0 -5.22,40.56zm101.96,-55.33l0,7.63a11.03,11.03 0 0 0 11.03,11.04l35.43,0l0,-29.7l-35.43,0a11.03,11.03 0 0 0 -11.03,11.03zm68.61,18.58l35.42,0a11.03,11.03 0 0 0 11.03,-11.03l0,-7.63a11.15,11.15 0 0 0 -11.03,-11.12l-35.42,0l0,29.78zm35.42,-51.84a33.25,33.25 0 0 1 32.35,25.96l67.78,0c-24.47,-56.91 -80.97,-96.81 -146.67,-96.81a159.57,159.57 0 0 0 -146.59,96.81l67.78,0a33.17,33.17 0 0 1 32.35,-25.96l93,0zm-57.57,22.23l0,-0.09l0,0.09zm-41.02,151.66a11.03,11.03 0 0 1 0,-15.6a11.03,11.03 0 0 1 15.6,0a11.03,11.03 0 0 1 0,15.6a11,11 0 0 1 -7.8,3.23a11,11 0 0 1 -7.8,-3.23zm41.02,-7.81a11.03,11.03 0 0 1 11.03,-11.04a11.03,11.03 0 0 1 11.03,11.04a11.03,11.03 0 0 1 -11.03,11.03a11.03,11.03 0 0 1 -11.03,-11.03zm44.58,2.5a11.04,11.04 0 0 1 8.2,-13.28a11.03,11.03 0 0 1 13.28,8.2a11.03,11.03 0 0 1 -8.2,13.28a11.05,11.05 0 0 1 -2.55,0.3a11.04,11.04 0 0 1 -10.73,-8.5zm21.78,-46.72a11.03,11.03 0 0 1 11.04,-11.03a11.03,11.03 0 0 1 11.03,11.03a11.03,11.03 0 0 1 -11.03,11.04a11.03,11.03 0 0 1 -11.04,-11.04zm-132.73,0a11.03,11.03 0 0 1 11.03,-11.03a11.03,11.03 0 0 1 11.04,11.03a11.03,11.03 0 0 1 -11.04,11.04a11.03,11.03 0 0 1 -11.03,-11.04zm91.74,7.8a11.03,11.03 0 0 1 0,-15.6a11.04,11.04 0 0 1 15.6,0a11.03,11.03 0 0 1 0,15.6a11,11 0 0 1 -7.8,3.24a11,11 0 0 1 -7.8,-3.24zm-47.14,-5.3a11.03,11.03 0 0 1 8.2,-13.27a11.04,11.04 0 0 1 13.27,8.2a11.03,11.03 0 0 1 -8.2,13.27a11.08,11.08 0 0 1 -2.55,0.3a11.04,11.04 0 0 1 -10.73,-8.5l0.01,0z" data-name="Union 10" fill="url(#linear-gradient)" id="Union_10" opacity="0"/>
  <g data-name="Group 289" id="Group_289">
   <path d="m555.24,142.52l-63.8,0a228.53,228.53 0 0 0 -19.32,-32.68l49.19,-49.2a11.09,11.09 0 1 0 -15.68,-15.68l-47.29,47.29c-3.73,-4.31 -7.54,-8.46 -11.61,-12.53a237.44,237.44 0 0 0 -22.9,-20.07l0,-48.62a11.03,11.03 0 1 0 -22.07,0l0,33.6a231.83,231.83 0 0 0 -237.09,0l0,-33.6a11.03,11.03 0 0 0 -22.07,0l0,48.62a237.44,237.44 0 0 0 -22.9,20.07c-4.06,4.07 -7.96,8.22 -11.61,12.53l-47.28,-47.29a11.09,11.09 0 0 0 -15.68,15.68l49.19,49.2a224.06,224.06 0 0 0 -19.33,32.68l-63.96,0a11.03,11.03 0 1 0 0,22.07l54.5,0a231.44,231.44 0 0 0 388.42,235.02a11.04,11.04 0 1 0 -16.26,-14.93a209.81,209.81 0 0 1 -154.39,68.02c-115.39,0 -209.22,-93.83 -209.22,-209.22s93.83,-209.22 209.22,-209.22s209.22,93.83 209.22,209.22a207.07,207.07 0 0 1 -11.45,68.36a11.07,11.07 0 1 0 20.91,7.3a233.5,233.5 0 0 0 -1.08,-154.47l54.42,0a11.03,11.03 0 0 0 11.03,-11.03a11.17,11.17 0 0 0 -11.11,-11.12z" data-name="Path 3814" fill="url(#linear-gradient-2)" id="Path_3814" opacity="0"/>
   <circle cx="11.03" cy="11.03" data-name="Ellipse 41" fill="url(#linear-gradient-2)" id="Ellipse_41" r="11.03" transform="translate(459.217 347.93) rotate(-9.218)"/>
   <use id="svg_6" transform="matrix(0.990673 0 0 0.990673 -374.847 -582.855)" x="434.74" xlink:href="#svg_5" y="604.24"/>
  </g>
 </g>
</svg>