<svg xmlns="http://www.w3.org/2000/svg" width="20" height="19.111" viewBox="0 0 20 19.111">
  <path id="GO_BACK_ARROW" data-name="GO BACK ARROW" d="M3.353,10,10.7,17.561a1.458,1.458,0,0,1,0,2.02,1.362,1.362,0,0,1-1.964,0L.407,11.01a1.458,1.458,0,0,1,0-2.02L8.74.418a1.362,1.362,0,0,1,1.964,0,1.458,1.458,0,0,1,0,2.02Z" transform="translate(0 19.111) rotate(-90)" fill="#fff"/>
  <path id="GO_BACK_ARROW-2" data-name="GO BACK ARROW" d="M3.353,10,10.7,17.561a1.458,1.458,0,0,1,0,2.02,1.362,1.362,0,0,1-1.964,0L.407,11.01a1.458,1.458,0,0,1,0-2.02L8.74.418a1.362,1.362,0,0,1,1.964,0,1.458,1.458,0,0,1,0,2.02Z" transform="translate(0 11.111) rotate(-90)" fill="#fff"/>
</svg>
