<svg id="huawei-ar21" xmlns="http://www.w3.org/2000/svg" width="174.571" height="41.874" viewBox="0 0 174.571 41.874">
  <path id="Path_3689" data-name="Path 3689" d="M49.748,42.447H45.675V24.569h4.073v7.244h9.064V24.569h4.073V42.445H58.813V34.964H49.748Zm20.524-7.172c0,3.162,1,4.479,4.366,4.479s4.323-1.33,4.323-4.479V24.568h4.07V35.374a7.088,7.088,0,0,1-1.131,4.8c-1.6,1.749-3.912,2.469-7.279,2.469s-5.713-.72-7.3-2.469c-.891-.961-1.111-2.535-1.111-4.8V24.568h4.045ZM96.346,24.568l8.246,17.877h-4.511L98.3,38.186H89.891l-1.724,4.259H83.839l8.188-17.877ZM91.2,35h5.769l-2.938-6.87Zm40.972-10.433-5.985,17.876H121.2L117.09,29.118l-3.608,13.345H108.52l-6.446-17.876h4.373l4.489,13.743,3.774-13.743h4.8l4.336,13.743,4.178-13.743Zm5.495,7.269h11.267v3.1H137.626c.022,3.212,1.4,4.379,4.605,4.379h6.683V42.43h-6.873A9.156,9.156,0,0,1,136,40.862a8.147,8.147,0,0,1-2.963-7.046c0-6.318,2.885-9.26,9.111-9.26h6.762v3.116h-6.683c-2.933,0-4.414,1.34-4.58,4.153m14.87-7.255h4.256V42.447h-4.256Z" transform="translate(17.796 -12.66)" fill="#fff"/>
  <path id="Path_3690" data-name="Path 3690" d="M31.414,50.065a.174.174,0,0,0,.047-.2A126.819,126.819,0,0,0,16.007,24.793S11.152,29.4,11.5,34.02a8.163,8.163,0,0,0,2.815,5.563C18.545,43.711,28.8,48.921,31.186,50.1a.194.194,0,0,0,.229-.033M29.829,53.6a.233.233,0,0,0-.219-.156v0l-17.074.6c1.85,3.3,4.988,5.865,8.218,5.079,2.241-.56,7.322-4.1,8.978-5.3v0c.128-.116.083-.209.083-.209m.273-1.536c.083-.133-.067-.249-.067-.249l0-.007C22.541,46.753,7.99,38.984,7.99,38.984A10.108,10.108,0,0,0,13.837,51.47a10.441,10.441,0,0,0,3.265.718c.256.05,10.155,0,12.8-.007a.228.228,0,0,0,.176-.12m1.137-34.641c-.745.067-2.75.522-2.75.522a7.921,7.921,0,0,0-5.59,5.27,10.441,10.441,0,0,0,.023,5.415c1.508,6.693,8.935,17.7,10.527,20,.113.113.206.071.206.071a.208.208,0,0,0,.158-.213h0C36.253,23.93,31.222,17.4,31.222,17.4M36.87,48.7a.194.194,0,0,0,.246-.091h0c1.639-2.371,9.019-13.312,10.519-19.977a11.278,11.278,0,0,0,.028-5.415,7.93,7.93,0,0,0-5.643-5.27s-1.305-.329-2.688-.524c0,0-5.061,6.514-2.6,31.09h0a.2.2,0,0,0,.133.186m4.04,4.762s-.166.02-.193.13a.246.246,0,0,0,.067.233c1.629,1.172,6.584,4.655,8.978,5.309,0,0,4.414,1.5,8.246-5.081l-17.094-.6ZM62.557,38.946S48.042,46.733,40.536,51.8a.233.233,0,0,0-.085.249s.071.128.176.128v0l13.111-.033a10.208,10.208,0,0,0,2.939-.678,10.015,10.015,0,0,0,5.5-5.257,10.324,10.324,0,0,0,.382-7.265M39.164,50.083a.218.218,0,0,0,.233.017c2.444-1.22,12.624-6.4,16.838-10.5a8.23,8.23,0,0,0,2.813-5.588c.308-4.78-4.489-9.2-4.489-9.2a126.7,126.7,0,0,0-15.429,25h0a.236.236,0,0,0,.047.273" transform="translate(-7.498 -17.401)" fill="#fff"/>
</svg>
