<svg xmlns="http://www.w3.org/2000/svg" width="12.562" height="12.5" viewBox="0 0 12.562 12.5">
  <g id="phone-call-icon" transform="translate(0.001 -0.003)">
    <path id="Path_11" data-name="Path 11" d="M3.459,5.14A10.427,10.427,0,0,0,5,7.3,8.826,8.826,0,0,0,7.443,9.1a.254.254,0,0,0,.212.011A.91.91,0,0,0,7.948,8.9a3.268,3.268,0,0,0,.268-.328c.393-.516.878-1.157,1.564-.836.015.007.027.015.042.021L12.11,9.072c.007,0,.015.011.021.015a1.032,1.032,0,0,1,.429.891,2.412,2.412,0,0,1-.335,1.135,2.324,2.324,0,0,1-1.1.972,5.014,5.014,0,0,1-1.357.369A4.6,4.6,0,0,1,7.7,12.281a9.2,9.2,0,0,1-2.085-1.006l-.054-.035c-.338-.212-.7-.438-1.063-.7a13.337,13.337,0,0,1-3.523-4A6.5,6.5,0,0,1,.059,2.423a2.95,2.95,0,0,1,1-1.873A2.679,2.679,0,0,1,3.048.018a.287.287,0,0,1,.23.147l1.467,2.48a.776.776,0,0,1,.124.83,1.613,1.613,0,0,1-.561.629c-.079.067-.173.136-.272.208-.328.238-.7.513-.574.836l0-.008Z" transform="translate(0 0)" fill="#d71846"/>
  </g>
</svg>
