<svg xmlns="http://www.w3.org/2000/svg" width="42.057" height="42.057" viewBox="0 0 42.057 42.057">
  <path id="ICON" d="M24.162,3.151c-8.613,0-16.792-.766-19.917,7.246-1.29,3.309-1.1,7.606-1.1,13.759,0,5.4-.173,10.474,1.1,13.757,3.117,8.016,11.363,7.248,19.912,7.248,8.248,0,16.752.858,19.914-7.248,1.293-3.342,1.1-7.575,1.1-13.757,0-8.206.453-13.5-3.53-17.481-4.033-4.029-9.486-3.525-17.492-3.525ZM22.279,6.936c17.967-.028,20.253-2.024,18.991,25.7-.448,9.806-7.921,8.73-17.106,8.73-16.747,0-17.229-.479-17.229-17.22,0-16.936,1.328-17.2,15.343-17.215Zm13.1,3.487a2.52,2.52,0,1,0,2.522,2.52A2.521,2.521,0,0,0,35.382,10.423Zm-11.22,2.946A10.786,10.786,0,1,0,34.953,24.156,10.791,10.791,0,0,0,24.162,13.369Zm0,3.785c9.263,0,9.275,14,0,14S14.887,17.154,24.162,17.154Z" transform="translate(-3.133 -3.13)" fill="#fff"/>
</svg>
