<svg xmlns="http://www.w3.org/2000/svg" width="41.857" height="42.057" viewBox="0 0 41.857 42.057">
  <path id="Path_3688" data-name="Path 3688" d="M117.352,86.841a20.842,20.842,0,0,0-32.794,25.146l-2.958,10.8,11.049-2.9a20.824,20.824,0,0,0,9.959,2.54h.008a20.84,20.84,0,0,0,14.732-35.581h0Zm-14.739,32.076a17.3,17.3,0,0,1-8.824-2.418l-.632-.376L86.6,117.838l1.751-6.392-.41-.656a17.322,17.322,0,1,1,14.671,8.121h0Zm9.5-12.983c-.518-.264-3.081-1.52-3.558-1.694s-.822-.263-1.176.264-1.346,1.693-1.651,2.04-.607.395-1.124.131a14.355,14.355,0,0,1-4.19-2.587,16.027,16.027,0,0,1-2.9-3.6c-.3-.511-.035-.805.23-1.059.24-.232.518-.607.781-.912a3.381,3.381,0,0,0,.518-.871A.958.958,0,0,0,99,96.734c-.131-.262-1.176-2.826-1.6-3.87-.419-1.021-.854-.878-1.175-.9s-.65-.016-.995-.016a1.92,1.92,0,0,0-1.388.649,5.829,5.829,0,0,0-1.824,4.346,10.135,10.135,0,0,0,2.126,5.389c.262.349,3.673,5.611,8.9,7.864,1.241.533,2.21.853,2.966,1.1a7.2,7.2,0,0,0,3.278.205c1-.148,3.081-1.259,3.517-2.474a4.346,4.346,0,0,0,.306-2.474c-.13-.215-.469-.36-.995-.626h0Z" transform="translate(-81.6 -80.729)" fill="#fff" fill-rule="evenodd"/>
</svg>
